<?xml version="1.0" encoding="utf-8" standalone="no"?>
<!DOCTYPE svg PUBLIC "-//W3C//DTD SVG 1.1//EN"
  "http://www.w3.org/Graphics/SVG/1.1/DTD/svg11.dtd">
<svg xmlns:xlink="http://www.w3.org/1999/xlink" width="423.658367pt" height="280.474375pt" viewBox="0 0 423.658367 280.474375" xmlns="http://www.w3.org/2000/svg" version="1.1">
 <metadata>
  <rdf:RDF xmlns:dc="http://purl.org/dc/elements/1.1/" xmlns:cc="http://creativecommons.org/ns#" xmlns:rdf="http://www.w3.org/1999/02/22-rdf-syntax-ns#">
   <cc:Work>
    <dc:type rdf:resource="http://purl.org/dc/dcmitype/StillImage"/>
    <dc:date>2026-06-07T22:30:14.397272</dc:date>
    <dc:format>image/svg+xml</dc:format>
    <dc:creator>
     <cc:Agent>
      <dc:title>Matplotlib v3.10.9, https://matplotlib.org/</dc:title>
     </cc:Agent>
    </dc:creator>
   </cc:Work>
  </rdf:RDF>
 </metadata>
 <defs>
  <style type="text/css">*{stroke-linejoin: round; stroke-linecap: butt}</style>
 </defs>
 <g id="figure_1">
  <g id="patch_1">
   <path d="M 0 280.474375 
L 423.658367 280.474375 
L 423.658367 0 
L 0 0 
z
" style="fill: #ffffff"/>
  </g>
  <g id="axes_1">
   <g id="patch_2">
    <path d="M 40.603125 242.918125 
L 416.153125 242.918125 
L 416.153125 22.318125 
L 40.603125 22.318125 
z
" style="fill: #ffffff"/>
   </g>
   <g id="FillBetweenPolyCollection_1">
    <path d="M 57.67358 32.345398 
L 57.67358 232.890852 
L 68.686776 169.263704 
L 79.699973 157.012616 
L 90.713169 154.310985 
L 101.726365 145.311295 
L 112.739562 144.459453 
L 123.752758 144.821424 
L 134.765955 141.291141 
L 145.779151 138.907445 
L 156.792348 137.551362 
L 167.805544 136.158857 
L 178.818741 136.659362 
L 189.831937 134.837155 
L 200.845134 134.146415 
L 211.85833 133.627927 
L 222.871527 133.311765 
L 233.884723 132.585147 
L 244.89792 132.413195 
L 255.911116 131.587202 
L 266.924313 131.220662 
L 277.937509 130.94215 
L 288.950706 130.824854 
L 299.963902 130.575471 
L 310.977099 130.261732 
L 321.990295 129.849147 
L 333.003492 129.657436 
L 344.016688 129.484523 
L 355.029885 129.019067 
L 366.043081 128.67575 
L 377.056277 128.188889 
L 388.069474 127.56165 
L 399.08267 126.638372 
L 399.08267 126.638372 
L 399.08267 126.638372 
L 388.069474 125.945408 
L 377.056277 125.635749 
L 366.043081 125.355085 
L 355.029885 125.160698 
L 344.016688 125.043063 
L 333.003492 124.821258 
L 321.990295 124.38937 
L 310.977099 124.23357 
L 299.963902 123.737685 
L 288.950706 122.795361 
L 277.937509 122.897861 
L 266.924313 122.468945 
L 255.911116 122.10173 
L 244.89792 121.177232 
L 233.884723 120.906001 
L 222.871527 119.387489 
L 211.85833 118.874782 
L 200.845134 118.252708 
L 189.831937 118.006855 
L 178.818741 113.227966 
L 167.805544 115.632806 
L 156.792348 116.007182 
L 145.779151 113.129244 
L 134.765955 108.087172 
L 123.752758 108.095993 
L 112.739562 109.189096 
L 101.726365 111.472439 
L 90.713169 98.944548 
L 79.699973 102.477872 
L 68.686776 93.987244 
L 57.67358 32.345398 
z
" clip-path="url(#p3145711689)" style="fill: #1f77b4; fill-opacity: 0.2"/>
   </g>
   <g id="FillBetweenPolyCollection_2">
    <path d="M 57.67358 150.732074 
L 57.67358 192.194293 
L 68.686776 174.26926 
L 79.699973 164.945366 
L 90.713169 155.10871 
L 101.726365 149.946542 
L 112.739562 145.389566 
L 123.752758 143.086207 
L 134.765955 140.143522 
L 145.779151 138.743077 
L 156.792348 137.843928 
L 167.805544 136.152128 
L 178.818741 135.309609 
L 189.831937 134.556954 
L 200.845134 133.673235 
L 211.85833 132.847495 
L 222.871527 132.399285 
L 233.884723 132.190009 
L 244.89792 132.029681 
L 255.911116 131.481896 
L 266.924313 131.213268 
L 277.937509 131.010922 
L 288.950706 130.79919 
L 299.963902 130.667336 
L 310.977099 130.296248 
L 321.990295 129.839276 
L 333.003492 129.619857 
L 344.016688 129.447381 
L 355.029885 129.012461 
L 366.043081 128.664983 
L 377.056277 128.184306 
L 388.069474 127.56165 
L 399.08267 126.638372 
L 399.08267 126.638372 
L 399.08267 126.638372 
L 388.069474 125.945408 
L 377.056277 125.668222 
L 366.043081 125.533016 
L 355.029885 125.473429 
L 344.016688 125.441559 
L 333.003492 125.441818 
L 321.990295 125.452713 
L 310.977099 125.513947 
L 299.963902 125.603486 
L 288.950706 125.644368 
L 277.937509 125.720528 
L 266.924313 125.806074 
L 255.911116 125.940495 
L 244.89792 126.198808 
L 233.884723 126.326372 
L 222.871527 126.404988 
L 211.85833 126.64772 
L 200.845134 126.800813 
L 189.831937 126.953506 
L 178.818741 127.122106 
L 167.805544 127.719048 
L 156.792348 128.15765 
L 145.779151 128.697962 
L 134.765955 129.197605 
L 123.752758 129.594469 
L 112.739562 130.63066 
L 101.726365 132.061841 
L 90.713169 134.845497 
L 79.699973 137.733675 
L 68.686776 142.804389 
L 57.67358 150.732074 
z
" clip-path="url(#p3145711689)" style="fill: #ff7f0e; fill-opacity: 0.12"/>
   </g>
   <g id="matplotlib.axis_1">
    <g id="xtick_1">
     <g id="line2d_1">
      <defs>
       <path id="me64e6bbc51" d="M 0 0 
L 0 3.5 
" style="stroke: #000000; stroke-width: 0.8"/>
      </defs>
      <g>
       <use xlink:href="#me64e6bbc51" x="79.699973" y="242.918125" style="stroke: #000000; stroke-width: 0.8"/>
      </g>
     </g>
     <g id="text_1">
      <!-- 5 -->
      <g transform="translate(76.518723 257.516563) scale(0.1 -0.1)">
       <defs>
        <path id="DejaVuSans-35" d="M 691 4666 
L 3169 4666 
L 3169 4134 
L 1269 4134 
L 1269 2991 
Q 1406 3038 1543 3061 
Q 1681 3084 1819 3084 
Q 2600 3084 3056 2656 
Q 3513 2228 3513 1497 
Q 3513 744 3044 326 
Q 2575 -91 1722 -91 
Q 1428 -91 1123 -41 
Q 819 9 494 109 
L 494 744 
Q 775 591 1075 516 
Q 1375 441 1709 441 
Q 2250 441 2565 725 
Q 2881 1009 2881 1497 
Q 2881 1984 2565 2268 
Q 2250 2553 1709 2553 
Q 1456 2553 1204 2497 
Q 953 2441 691 2322 
L 691 4666 
z
" transform="scale(0.015625)"/>
       </defs>
       <use xlink:href="#DejaVuSans-35"/>
      </g>
     </g>
    </g>
    <g id="xtick_2">
     <g id="line2d_2">
      <g>
       <use xlink:href="#me64e6bbc51" x="134.765955" y="242.918125" style="stroke: #000000; stroke-width: 0.8"/>
      </g>
     </g>
     <g id="text_2">
      <!-- 10 -->
      <g transform="translate(128.403455 257.516563) scale(0.1 -0.1)">
       <defs>
        <path id="DejaVuSans-31" d="M 794 531 
L 1825 531 
L 1825 4091 
L 703 3866 
L 703 4441 
L 1819 4666 
L 2450 4666 
L 2450 531 
L 3481 531 
L 3481 0 
L 794 0 
L 794 531 
z
" transform="scale(0.015625)"/>
        <path id="DejaVuSans-30" d="M 2034 4250 
Q 1547 4250 1301 3770 
Q 1056 3291 1056 2328 
Q 1056 1369 1301 889 
Q 1547 409 2034 409 
Q 2525 409 2770 889 
Q 3016 1369 3016 2328 
Q 3016 3291 2770 3770 
Q 2525 4250 2034 4250 
z
M 2034 4750 
Q 2819 4750 3233 4129 
Q 3647 3509 3647 2328 
Q 3647 1150 3233 529 
Q 2819 -91 2034 -91 
Q 1250 -91 836 529 
Q 422 1150 422 2328 
Q 422 3509 836 4129 
Q 1250 4750 2034 4750 
z
" transform="scale(0.015625)"/>
       </defs>
       <use xlink:href="#DejaVuSans-31"/>
       <use xlink:href="#DejaVuSans-30" transform="translate(63.623047 0)"/>
      </g>
     </g>
    </g>
    <g id="xtick_3">
     <g id="line2d_3">
      <g>
       <use xlink:href="#me64e6bbc51" x="189.831937" y="242.918125" style="stroke: #000000; stroke-width: 0.8"/>
      </g>
     </g>
     <g id="text_3">
      <!-- 15 -->
      <g transform="translate(183.469437 257.516563) scale(0.1 -0.1)">
       <use xlink:href="#DejaVuSans-31"/>
       <use xlink:href="#DejaVuSans-35" transform="translate(63.623047 0)"/>
      </g>
     </g>
    </g>
    <g id="xtick_4">
     <g id="line2d_4">
      <g>
       <use xlink:href="#me64e6bbc51" x="244.89792" y="242.918125" style="stroke: #000000; stroke-width: 0.8"/>
      </g>
     </g>
     <g id="text_4">
      <!-- 20 -->
      <g transform="translate(238.53542 257.516563) scale(0.1 -0.1)">
       <defs>
        <path id="DejaVuSans-32" d="M 1228 531 
L 3431 531 
L 3431 0 
L 469 0 
L 469 531 
Q 828 903 1448 1529 
Q 2069 2156 2228 2338 
Q 2531 2678 2651 2914 
Q 2772 3150 2772 3378 
Q 2772 3750 2511 3984 
Q 2250 4219 1831 4219 
Q 1534 4219 1204 4116 
Q 875 4013 500 3803 
L 500 4441 
Q 881 4594 1212 4672 
Q 1544 4750 1819 4750 
Q 2544 4750 2975 4387 
Q 3406 4025 3406 3419 
Q 3406 3131 3298 2873 
Q 3191 2616 2906 2266 
Q 2828 2175 2409 1742 
Q 1991 1309 1228 531 
z
" transform="scale(0.015625)"/>
       </defs>
       <use xlink:href="#DejaVuSans-32"/>
       <use xlink:href="#DejaVuSans-30" transform="translate(63.623047 0)"/>
      </g>
     </g>
    </g>
    <g id="xtick_5">
     <g id="line2d_5">
      <g>
       <use xlink:href="#me64e6bbc51" x="299.963902" y="242.918125" style="stroke: #000000; stroke-width: 0.8"/>
      </g>
     </g>
     <g id="text_5">
      <!-- 25 -->
      <g transform="translate(293.601402 257.516563) scale(0.1 -0.1)">
       <use xlink:href="#DejaVuSans-32"/>
       <use xlink:href="#DejaVuSans-35" transform="translate(63.623047 0)"/>
      </g>
     </g>
    </g>
    <g id="xtick_6">
     <g id="line2d_6">
      <g>
       <use xlink:href="#me64e6bbc51" x="355.029885" y="242.918125" style="stroke: #000000; stroke-width: 0.8"/>
      </g>
     </g>
     <g id="text_6">
      <!-- 30 -->
      <g transform="translate(348.667385 257.516563) scale(0.1 -0.1)">
       <defs>
        <path id="DejaVuSans-33" d="M 2597 2516 
Q 3050 2419 3304 2112 
Q 3559 1806 3559 1356 
Q 3559 666 3084 287 
Q 2609 -91 1734 -91 
Q 1441 -91 1130 -33 
Q 819 25 488 141 
L 488 750 
Q 750 597 1062 519 
Q 1375 441 1716 441 
Q 2309 441 2620 675 
Q 2931 909 2931 1356 
Q 2931 1769 2642 2001 
Q 2353 2234 1838 2234 
L 1294 2234 
L 1294 2753 
L 1863 2753 
Q 2328 2753 2575 2939 
Q 2822 3125 2822 3475 
Q 2822 3834 2567 4026 
Q 2313 4219 1838 4219 
Q 1578 4219 1281 4162 
Q 984 4106 628 3988 
L 628 4550 
Q 988 4650 1302 4700 
Q 1616 4750 1894 4750 
Q 2613 4750 3031 4423 
Q 3450 4097 3450 3541 
Q 3450 3153 3228 2886 
Q 3006 2619 2597 2516 
z
" transform="scale(0.015625)"/>
       </defs>
       <use xlink:href="#DejaVuSans-33"/>
       <use xlink:href="#DejaVuSans-30" transform="translate(63.623047 0)"/>
      </g>
     </g>
    </g>
    <g id="xtick_7">
     <g id="line2d_7">
      <g>
       <use xlink:href="#me64e6bbc51" x="410.095867" y="242.918125" style="stroke: #000000; stroke-width: 0.8"/>
      </g>
     </g>
     <g id="text_7">
      <!-- 35 -->
      <g transform="translate(403.733367 257.516563) scale(0.1 -0.1)">
       <use xlink:href="#DejaVuSans-33"/>
       <use xlink:href="#DejaVuSans-35" transform="translate(63.623047 0)"/>
      </g>
     </g>
    </g>
    <g id="text_8">
     <!-- Number of samples -->
     <g transform="translate(179.510937 271.194687) scale(0.1 -0.1)">
      <defs>
       <path id="DejaVuSans-4e" d="M 628 4666 
L 1478 4666 
L 3547 763 
L 3547 4666 
L 4159 4666 
L 4159 0 
L 3309 0 
L 1241 3903 
L 1241 0 
L 628 0 
L 628 4666 
z
" transform="scale(0.015625)"/>
       <path id="DejaVuSans-75" d="M 544 1381 
L 544 3500 
L 1119 3500 
L 1119 1403 
Q 1119 906 1312 657 
Q 1506 409 1894 409 
Q 2359 409 2629 706 
Q 2900 1003 2900 1516 
L 2900 3500 
L 3475 3500 
L 3475 0 
L 2900 0 
L 2900 538 
Q 2691 219 2414 64 
Q 2138 -91 1772 -91 
Q 1169 -91 856 284 
Q 544 659 544 1381 
z
M 1991 3584 
L 1991 3584 
z
" transform="scale(0.015625)"/>
       <path id="DejaVuSans-6d" d="M 3328 2828 
Q 3544 3216 3844 3400 
Q 4144 3584 4550 3584 
Q 5097 3584 5394 3201 
Q 5691 2819 5691 2113 
L 5691 0 
L 5113 0 
L 5113 2094 
Q 5113 2597 4934 2840 
Q 4756 3084 4391 3084 
Q 3944 3084 3684 2787 
Q 3425 2491 3425 1978 
L 3425 0 
L 2847 0 
L 2847 2094 
Q 2847 2600 2669 2842 
Q 2491 3084 2119 3084 
Q 1678 3084 1418 2786 
Q 1159 2488 1159 1978 
L 1159 0 
L 581 0 
L 581 3500 
L 1159 3500 
L 1159 2956 
Q 1356 3278 1631 3431 
Q 1906 3584 2284 3584 
Q 2666 3584 2933 3390 
Q 3200 3197 3328 2828 
z
" transform="scale(0.015625)"/>
       <path id="DejaVuSans-62" d="M 3116 1747 
Q 3116 2381 2855 2742 
Q 2594 3103 2138 3103 
Q 1681 3103 1420 2742 
Q 1159 2381 1159 1747 
Q 1159 1113 1420 752 
Q 1681 391 2138 391 
Q 2594 391 2855 752 
Q 3116 1113 3116 1747 
z
M 1159 2969 
Q 1341 3281 1617 3432 
Q 1894 3584 2278 3584 
Q 2916 3584 3314 3078 
Q 3713 2572 3713 1747 
Q 3713 922 3314 415 
Q 2916 -91 2278 -91 
Q 1894 -91 1617 61 
Q 1341 213 1159 525 
L 1159 0 
L 581 0 
L 581 4863 
L 1159 4863 
L 1159 2969 
z
" transform="scale(0.015625)"/>
       <path id="DejaVuSans-65" d="M 3597 1894 
L 3597 1613 
L 953 1613 
Q 991 1019 1311 708 
Q 1631 397 2203 397 
Q 2534 397 2845 478 
Q 3156 559 3463 722 
L 3463 178 
Q 3153 47 2828 -22 
Q 2503 -91 2169 -91 
Q 1331 -91 842 396 
Q 353 884 353 1716 
Q 353 2575 817 3079 
Q 1281 3584 2069 3584 
Q 2775 3584 3186 3129 
Q 3597 2675 3597 1894 
z
M 3022 2063 
Q 3016 2534 2758 2815 
Q 2500 3097 2075 3097 
Q 1594 3097 1305 2825 
Q 1016 2553 972 2059 
L 3022 2063 
z
" transform="scale(0.015625)"/>
       <path id="DejaVuSans-72" d="M 2631 2963 
Q 2534 3019 2420 3045 
Q 2306 3072 2169 3072 
Q 1681 3072 1420 2755 
Q 1159 2438 1159 1844 
L 1159 0 
L 581 0 
L 581 3500 
L 1159 3500 
L 1159 2956 
Q 1341 3275 1631 3429 
Q 1922 3584 2338 3584 
Q 2397 3584 2469 3576 
Q 2541 3569 2628 3553 
L 2631 2963 
z
" transform="scale(0.015625)"/>
       <path id="DejaVuSans-20" transform="scale(0.015625)"/>
       <path id="DejaVuSans-6f" d="M 1959 3097 
Q 1497 3097 1228 2736 
Q 959 2375 959 1747 
Q 959 1119 1226 758 
Q 1494 397 1959 397 
Q 2419 397 2687 759 
Q 2956 1122 2956 1747 
Q 2956 2369 2687 2733 
Q 2419 3097 1959 3097 
z
M 1959 3584 
Q 2709 3584 3137 3096 
Q 3566 2609 3566 1747 
Q 3566 888 3137 398 
Q 2709 -91 1959 -91 
Q 1206 -91 779 398 
Q 353 888 353 1747 
Q 353 2609 779 3096 
Q 1206 3584 1959 3584 
z
" transform="scale(0.015625)"/>
       <path id="DejaVuSans-66" d="M 2375 4863 
L 2375 4384 
L 1825 4384 
Q 1516 4384 1395 4259 
Q 1275 4134 1275 3809 
L 1275 3500 
L 2222 3500 
L 2222 3053 
L 1275 3053 
L 1275 0 
L 697 0 
L 697 3053 
L 147 3053 
L 147 3500 
L 697 3500 
L 697 3744 
Q 697 4328 969 4595 
Q 1241 4863 1831 4863 
L 2375 4863 
z
" transform="scale(0.015625)"/>
       <path id="DejaVuSans-73" d="M 2834 3397 
L 2834 2853 
Q 2591 2978 2328 3040 
Q 2066 3103 1784 3103 
Q 1356 3103 1142 2972 
Q 928 2841 928 2578 
Q 928 2378 1081 2264 
Q 1234 2150 1697 2047 
L 1894 2003 
Q 2506 1872 2764 1633 
Q 3022 1394 3022 966 
Q 3022 478 2636 193 
Q 2250 -91 1575 -91 
Q 1294 -91 989 -36 
Q 684 19 347 128 
L 347 722 
Q 666 556 975 473 
Q 1284 391 1588 391 
Q 1994 391 2212 530 
Q 2431 669 2431 922 
Q 2431 1156 2273 1281 
Q 2116 1406 1581 1522 
L 1381 1569 
Q 847 1681 609 1914 
Q 372 2147 372 2553 
Q 372 3047 722 3315 
Q 1072 3584 1716 3584 
Q 2034 3584 2315 3537 
Q 2597 3491 2834 3397 
z
" transform="scale(0.015625)"/>
       <path id="DejaVuSans-61" d="M 2194 1759 
Q 1497 1759 1228 1600 
Q 959 1441 959 1056 
Q 959 750 1161 570 
Q 1363 391 1709 391 
Q 2188 391 2477 730 
Q 2766 1069 2766 1631 
L 2766 1759 
L 2194 1759 
z
M 3341 1997 
L 3341 0 
L 2766 0 
L 2766 531 
Q 2569 213 2275 61 
Q 1981 -91 1556 -91 
Q 1019 -91 701 211 
Q 384 513 384 1019 
Q 384 1609 779 1909 
Q 1175 2209 1959 2209 
L 2766 2209 
L 2766 2266 
Q 2766 2663 2505 2880 
Q 2244 3097 1772 3097 
Q 1472 3097 1187 3025 
Q 903 2953 641 2809 
L 641 3341 
Q 956 3463 1253 3523 
Q 1550 3584 1831 3584 
Q 2591 3584 2966 3190 
Q 3341 2797 3341 1997 
z
" transform="scale(0.015625)"/>
       <path id="DejaVuSans-70" d="M 1159 525 
L 1159 -1331 
L 581 -1331 
L 581 3500 
L 1159 3500 
L 1159 2969 
Q 1341 3281 1617 3432 
Q 1894 3584 2278 3584 
Q 2916 3584 3314 3078 
Q 3713 2572 3713 1747 
Q 3713 922 3314 415 
Q 2916 -91 2278 -91 
Q 1894 -91 1617 61 
Q 1341 213 1159 525 
z
M 3116 1747 
Q 3116 2381 2855 2742 
Q 2594 3103 2138 3103 
Q 1681 3103 1420 2742 
Q 1159 2381 1159 1747 
Q 1159 1113 1420 752 
Q 1681 391 2138 391 
Q 2594 391 2855 752 
Q 3116 1113 3116 1747 
z
" transform="scale(0.015625)"/>
       <path id="DejaVuSans-6c" d="M 603 4863 
L 1178 4863 
L 1178 0 
L 603 0 
L 603 4863 
z
" transform="scale(0.015625)"/>
      </defs>
      <use xlink:href="#DejaVuSans-4e"/>
      <use xlink:href="#DejaVuSans-75" transform="translate(74.804688 0)"/>
      <use xlink:href="#DejaVuSans-6d" transform="translate(138.183594 0)"/>
      <use xlink:href="#DejaVuSans-62" transform="translate(235.595703 0)"/>
      <use xlink:href="#DejaVuSans-65" transform="translate(299.072266 0)"/>
      <use xlink:href="#DejaVuSans-72" transform="translate(360.595703 0)"/>
      <use xlink:href="#DejaVuSans-20" transform="translate(401.708984 0)"/>
      <use xlink:href="#DejaVuSans-6f" transform="translate(433.496094 0)"/>
      <use xlink:href="#DejaVuSans-66" transform="translate(494.677734 0)"/>
      <use xlink:href="#DejaVuSans-20" transform="translate(529.882812 0)"/>
      <use xlink:href="#DejaVuSans-73" transform="translate(561.669922 0)"/>
      <use xlink:href="#DejaVuSans-61" transform="translate(613.769531 0)"/>
      <use xlink:href="#DejaVuSans-6d" transform="translate(675.048828 0)"/>
      <use xlink:href="#DejaVuSans-70" transform="translate(772.460938 0)"/>
      <use xlink:href="#DejaVuSans-6c" transform="translate(835.9375 0)"/>
      <use xlink:href="#DejaVuSans-65" transform="translate(863.720703 0)"/>
      <use xlink:href="#DejaVuSans-73" transform="translate(925.244141 0)"/>
     </g>
    </g>
   </g>
   <g id="matplotlib.axis_2">
    <g id="ytick_1">
     <g id="line2d_8">
      <defs>
       <path id="m60dc8fddd0" d="M 0 0 
L -3.5 0 
" style="stroke: #000000; stroke-width: 0.8"/>
      </defs>
      <g>
       <use xlink:href="#m60dc8fddd0" x="40.603125" y="218.763868" style="stroke: #000000; stroke-width: 0.8"/>
      </g>
     </g>
     <g id="text_9">
      <!-- 25 -->
      <g transform="translate(20.878125 222.563086) scale(0.1 -0.1)">
       <use xlink:href="#DejaVuSans-32"/>
       <use xlink:href="#DejaVuSans-35" transform="translate(63.623047 0)"/>
      </g>
     </g>
    </g>
    <g id="ytick_2">
     <g id="line2d_9">
      <g>
       <use xlink:href="#m60dc8fddd0" x="40.603125" y="189.97465" style="stroke: #000000; stroke-width: 0.8"/>
      </g>
     </g>
     <g id="text_10">
      <!-- 30 -->
      <g transform="translate(20.878125 193.773869) scale(0.1 -0.1)">
       <use xlink:href="#DejaVuSans-33"/>
       <use xlink:href="#DejaVuSans-30" transform="translate(63.623047 0)"/>
      </g>
     </g>
    </g>
    <g id="ytick_3">
     <g id="line2d_10">
      <g>
       <use xlink:href="#m60dc8fddd0" x="40.603125" y="161.185433" style="stroke: #000000; stroke-width: 0.8"/>
      </g>
     </g>
     <g id="text_11">
      <!-- 35 -->
      <g transform="translate(20.878125 164.984652) scale(0.1 -0.1)">
       <use xlink:href="#DejaVuSans-33"/>
       <use xlink:href="#DejaVuSans-35" transform="translate(63.623047 0)"/>
      </g>
     </g>
    </g>
    <g id="ytick_4">
     <g id="line2d_11">
      <g>
       <use xlink:href="#m60dc8fddd0" x="40.603125" y="132.396215" style="stroke: #000000; stroke-width: 0.8"/>
      </g>
     </g>
     <g id="text_12">
      <!-- 40 -->
      <g transform="translate(20.878125 136.195434) scale(0.1 -0.1)">
       <defs>
        <path id="DejaVuSans-34" d="M 2419 4116 
L 825 1625 
L 2419 1625 
L 2419 4116 
z
M 2253 4666 
L 3047 4666 
L 3047 1625 
L 3713 1625 
L 3713 1100 
L 3047 1100 
L 3047 0 
L 2419 0 
L 2419 1100 
L 313 1100 
L 313 1709 
L 2253 4666 
z
" transform="scale(0.015625)"/>
       </defs>
       <use xlink:href="#DejaVuSans-34"/>
       <use xlink:href="#DejaVuSans-30" transform="translate(63.623047 0)"/>
      </g>
     </g>
    </g>
    <g id="ytick_5">
     <g id="line2d_12">
      <g>
       <use xlink:href="#m60dc8fddd0" x="40.603125" y="103.606998" style="stroke: #000000; stroke-width: 0.8"/>
      </g>
     </g>
     <g id="text_13">
      <!-- 45 -->
      <g transform="translate(20.878125 107.406217) scale(0.1 -0.1)">
       <use xlink:href="#DejaVuSans-34"/>
       <use xlink:href="#DejaVuSans-35" transform="translate(63.623047 0)"/>
      </g>
     </g>
    </g>
    <g id="ytick_6">
     <g id="line2d_13">
      <g>
       <use xlink:href="#m60dc8fddd0" x="40.603125" y="74.817781" style="stroke: #000000; stroke-width: 0.8"/>
      </g>
     </g>
     <g id="text_14">
      <!-- 50 -->
      <g transform="translate(20.878125 78.616999) scale(0.1 -0.1)">
       <use xlink:href="#DejaVuSans-35"/>
       <use xlink:href="#DejaVuSans-30" transform="translate(63.623047 0)"/>
      </g>
     </g>
    </g>
    <g id="ytick_7">
     <g id="line2d_14">
      <g>
       <use xlink:href="#m60dc8fddd0" x="40.603125" y="46.028563" style="stroke: #000000; stroke-width: 0.8"/>
      </g>
     </g>
     <g id="text_15">
      <!-- 55 -->
      <g transform="translate(20.878125 49.827782) scale(0.1 -0.1)">
       <use xlink:href="#DejaVuSans-35"/>
       <use xlink:href="#DejaVuSans-35" transform="translate(63.623047 0)"/>
      </g>
     </g>
    </g>
    <g id="text_16">
     <!-- Number of clusters / species -->
     <g transform="translate(14.798438 203.847813) rotate(-90) scale(0.1 -0.1)">
      <defs>
       <path id="DejaVuSans-63" d="M 3122 3366 
L 3122 2828 
Q 2878 2963 2633 3030 
Q 2388 3097 2138 3097 
Q 1578 3097 1268 2742 
Q 959 2388 959 1747 
Q 959 1106 1268 751 
Q 1578 397 2138 397 
Q 2388 397 2633 464 
Q 2878 531 3122 666 
L 3122 134 
Q 2881 22 2623 -34 
Q 2366 -91 2075 -91 
Q 1284 -91 818 406 
Q 353 903 353 1747 
Q 353 2603 823 3093 
Q 1294 3584 2113 3584 
Q 2378 3584 2631 3529 
Q 2884 3475 3122 3366 
z
" transform="scale(0.015625)"/>
       <path id="DejaVuSans-74" d="M 1172 4494 
L 1172 3500 
L 2356 3500 
L 2356 3053 
L 1172 3053 
L 1172 1153 
Q 1172 725 1289 603 
Q 1406 481 1766 481 
L 2356 481 
L 2356 0 
L 1766 0 
Q 1100 0 847 248 
Q 594 497 594 1153 
L 594 3053 
L 172 3053 
L 172 3500 
L 594 3500 
L 594 4494 
L 1172 4494 
z
" transform="scale(0.015625)"/>
       <path id="DejaVuSans-2f" d="M 1625 4666 
L 2156 4666 
L 531 -594 
L 0 -594 
L 1625 4666 
z
" transform="scale(0.015625)"/>
       <path id="DejaVuSans-69" d="M 603 3500 
L 1178 3500 
L 1178 0 
L 603 0 
L 603 3500 
z
M 603 4863 
L 1178 4863 
L 1178 4134 
L 603 4134 
L 603 4863 
z
" transform="scale(0.015625)"/>
      </defs>
      <use xlink:href="#DejaVuSans-4e"/>
      <use xlink:href="#DejaVuSans-75" transform="translate(74.804688 0)"/>
      <use xlink:href="#DejaVuSans-6d" transform="translate(138.183594 0)"/>
      <use xlink:href="#DejaVuSans-62" transform="translate(235.595703 0)"/>
      <use xlink:href="#DejaVuSans-65" transform="translate(299.072266 0)"/>
      <use xlink:href="#DejaVuSans-72" transform="translate(360.595703 0)"/>
      <use xlink:href="#DejaVuSans-20" transform="translate(401.708984 0)"/>
      <use xlink:href="#DejaVuSans-6f" transform="translate(433.496094 0)"/>
      <use xlink:href="#DejaVuSans-66" transform="translate(494.677734 0)"/>
      <use xlink:href="#DejaVuSans-20" transform="translate(529.882812 0)"/>
      <use xlink:href="#DejaVuSans-63" transform="translate(561.669922 0)"/>
      <use xlink:href="#DejaVuSans-6c" transform="translate(616.650391 0)"/>
      <use xlink:href="#DejaVuSans-75" transform="translate(644.433594 0)"/>
      <use xlink:href="#DejaVuSans-73" transform="translate(707.8125 0)"/>
      <use xlink:href="#DejaVuSans-74" transform="translate(759.912109 0)"/>
      <use xlink:href="#DejaVuSans-65" transform="translate(799.121094 0)"/>
      <use xlink:href="#DejaVuSans-72" transform="translate(860.644531 0)"/>
      <use xlink:href="#DejaVuSans-73" transform="translate(901.757812 0)"/>
      <use xlink:href="#DejaVuSans-20" transform="translate(953.857422 0)"/>
      <use xlink:href="#DejaVuSans-2f" transform="translate(985.644531 0)"/>
      <use xlink:href="#DejaVuSans-20" transform="translate(1019.335938 0)"/>
      <use xlink:href="#DejaVuSans-73" transform="translate(1051.123047 0)"/>
      <use xlink:href="#DejaVuSans-70" transform="translate(1103.222656 0)"/>
      <use xlink:href="#DejaVuSans-65" transform="translate(1166.699219 0)"/>
      <use xlink:href="#DejaVuSans-63" transform="translate(1228.222656 0)"/>
      <use xlink:href="#DejaVuSans-69" transform="translate(1283.203125 0)"/>
      <use xlink:href="#DejaVuSans-65" transform="translate(1310.986328 0)"/>
      <use xlink:href="#DejaVuSans-73" transform="translate(1372.509766 0)"/>
     </g>
    </g>
   </g>
   <g id="line2d_15">
    <path d="M 57.67358 132.618125 
L 68.686776 131.625474 
L 79.699973 129.745244 
L 90.713169 126.627767 
L 101.726365 128.391867 
L 112.739562 126.824275 
L 123.752758 126.458709 
L 134.765955 124.689157 
L 145.779151 126.018344 
L 156.792348 126.779272 
L 167.805544 125.895832 
L 178.818741 124.943664 
L 189.831937 126.422005 
L 200.845134 126.199561 
L 211.85833 126.251354 
L 222.871527 126.349627 
L 233.884723 126.745574 
L 244.89792 126.795213 
L 255.911116 126.844466 
L 266.924313 126.844804 
L 277.937509 126.920006 
L 288.950706 126.810108 
L 299.963902 127.156578 
L 310.977099 127.247651 
L 321.990295 127.119258 
L 333.003492 127.239347 
L 344.016688 127.263793 
L 355.029885 127.089883 
L 366.043081 127.015418 
L 377.056277 126.912319 
L 388.069474 126.753529 
L 399.08267 126.638372 
" clip-path="url(#p3145711689)" style="fill: none; stroke: #1f77b4; stroke-width: 1.5; stroke-linecap: square"/>
    <defs>
     <path id="mcfd36be8ac" d="M 0 3 
C 0.795609 3 1.55874 2.683901 2.12132 2.12132 
C 2.683901 1.55874 3 0.795609 3 0 
C 3 -0.795609 2.683901 -1.55874 2.12132 -2.12132 
C 1.55874 -2.683901 0.795609 -3 0 -3 
C -0.795609 -3 -1.55874 -2.683901 -2.12132 -2.12132 
C -2.683901 -1.55874 -3 -0.795609 -3 0 
C -3 0.795609 -2.683901 1.55874 -2.12132 2.12132 
C -1.55874 2.683901 -0.795609 3 0 3 
z
" style="stroke: #1f77b4"/>
    </defs>
    <g clip-path="url(#p3145711689)">
     <use xlink:href="#mcfd36be8ac" x="57.67358" y="132.618125" style="fill: #1f77b4; stroke: #1f77b4"/>
     <use xlink:href="#mcfd36be8ac" x="68.686776" y="131.625474" style="fill: #1f77b4; stroke: #1f77b4"/>
     <use xlink:href="#mcfd36be8ac" x="79.699973" y="129.745244" style="fill: #1f77b4; stroke: #1f77b4"/>
     <use xlink:href="#mcfd36be8ac" x="90.713169" y="126.627767" style="fill: #1f77b4; stroke: #1f77b4"/>
     <use xlink:href="#mcfd36be8ac" x="101.726365" y="128.391867" style="fill: #1f77b4; stroke: #1f77b4"/>
     <use xlink:href="#mcfd36be8ac" x="112.739562" y="126.824275" style="fill: #1f77b4; stroke: #1f77b4"/>
     <use xlink:href="#mcfd36be8ac" x="123.752758" y="126.458709" style="fill: #1f77b4; stroke: #1f77b4"/>
     <use xlink:href="#mcfd36be8ac" x="134.765955" y="124.689157" style="fill: #1f77b4; stroke: #1f77b4"/>
     <use xlink:href="#mcfd36be8ac" x="145.779151" y="126.018344" style="fill: #1f77b4; stroke: #1f77b4"/>
     <use xlink:href="#mcfd36be8ac" x="156.792348" y="126.779272" style="fill: #1f77b4; stroke: #1f77b4"/>
     <use xlink:href="#mcfd36be8ac" x="167.805544" y="125.895832" style="fill: #1f77b4; stroke: #1f77b4"/>
     <use xlink:href="#mcfd36be8ac" x="178.818741" y="124.943664" style="fill: #1f77b4; stroke: #1f77b4"/>
     <use xlink:href="#mcfd36be8ac" x="189.831937" y="126.422005" style="fill: #1f77b4; stroke: #1f77b4"/>
     <use xlink:href="#mcfd36be8ac" x="200.845134" y="126.199561" style="fill: #1f77b4; stroke: #1f77b4"/>
     <use xlink:href="#mcfd36be8ac" x="211.85833" y="126.251354" style="fill: #1f77b4; stroke: #1f77b4"/>
     <use xlink:href="#mcfd36be8ac" x="222.871527" y="126.349627" style="fill: #1f77b4; stroke: #1f77b4"/>
     <use xlink:href="#mcfd36be8ac" x="233.884723" y="126.745574" style="fill: #1f77b4; stroke: #1f77b4"/>
     <use xlink:href="#mcfd36be8ac" x="244.89792" y="126.795213" style="fill: #1f77b4; stroke: #1f77b4"/>
     <use xlink:href="#mcfd36be8ac" x="255.911116" y="126.844466" style="fill: #1f77b4; stroke: #1f77b4"/>
     <use xlink:href="#mcfd36be8ac" x="266.924313" y="126.844804" style="fill: #1f77b4; stroke: #1f77b4"/>
     <use xlink:href="#mcfd36be8ac" x="277.937509" y="126.920006" style="fill: #1f77b4; stroke: #1f77b4"/>
     <use xlink:href="#mcfd36be8ac" x="288.950706" y="126.810108" style="fill: #1f77b4; stroke: #1f77b4"/>
     <use xlink:href="#mcfd36be8ac" x="299.963902" y="127.156578" style="fill: #1f77b4; stroke: #1f77b4"/>
     <use xlink:href="#mcfd36be8ac" x="310.977099" y="127.247651" style="fill: #1f77b4; stroke: #1f77b4"/>
     <use xlink:href="#mcfd36be8ac" x="321.990295" y="127.119258" style="fill: #1f77b4; stroke: #1f77b4"/>
     <use xlink:href="#mcfd36be8ac" x="333.003492" y="127.239347" style="fill: #1f77b4; stroke: #1f77b4"/>
     <use xlink:href="#mcfd36be8ac" x="344.016688" y="127.263793" style="fill: #1f77b4; stroke: #1f77b4"/>
     <use xlink:href="#mcfd36be8ac" x="355.029885" y="127.089883" style="fill: #1f77b4; stroke: #1f77b4"/>
     <use xlink:href="#mcfd36be8ac" x="366.043081" y="127.015418" style="fill: #1f77b4; stroke: #1f77b4"/>
     <use xlink:href="#mcfd36be8ac" x="377.056277" y="126.912319" style="fill: #1f77b4; stroke: #1f77b4"/>
     <use xlink:href="#mcfd36be8ac" x="388.069474" y="126.753529" style="fill: #1f77b4; stroke: #1f77b4"/>
     <use xlink:href="#mcfd36be8ac" x="399.08267" y="126.638372" style="fill: #1f77b4; stroke: #1f77b4"/>
    </g>
   </g>
   <g id="line2d_16">
    <path d="M 57.67358 171.463183 
L 68.686776 158.536825 
L 79.699973 151.33952 
L 90.713169 144.977103 
L 101.726365 141.004191 
L 112.739562 138.010113 
L 123.752758 136.340338 
L 134.765955 134.670564 
L 145.779151 133.720519 
L 156.792348 133.000789 
L 167.805544 131.935588 
L 178.818741 131.215857 
L 189.831937 130.75523 
L 200.845134 130.237024 
L 211.85833 129.747607 
L 222.871527 129.402137 
L 233.884723 129.258191 
L 244.89792 129.114245 
L 255.911116 128.711196 
L 266.924313 128.509671 
L 277.937509 128.365725 
L 288.950706 128.221779 
L 299.963902 128.135411 
L 310.977099 127.905097 
L 321.990295 127.645994 
L 333.003492 127.530838 
L 344.016688 127.44447 
L 355.029885 127.242945 
L 366.043081 127.098999 
L 377.056277 126.926264 
L 388.069474 126.753529 
L 399.08267 126.638372 
" clip-path="url(#p3145711689)" style="fill: none; stroke-dasharray: 5.55,2.4; stroke-dashoffset: 0; stroke: #ff7f0e; stroke-width: 1.5"/>
    <defs>
     <path id="mb9721c0059" d="M -3 3 
L 3 3 
L 3 -3 
L -3 -3 
z
" style="stroke: #ff7f0e; stroke-linejoin: miter"/>
    </defs>
    <g clip-path="url(#p3145711689)">
     <use xlink:href="#mb9721c0059" x="57.67358" y="171.463183" style="fill: #ff7f0e; stroke: #ff7f0e; stroke-linejoin: miter"/>
     <use xlink:href="#mb9721c0059" x="68.686776" y="158.536825" style="fill: #ff7f0e; stroke: #ff7f0e; stroke-linejoin: miter"/>
     <use xlink:href="#mb9721c0059" x="79.699973" y="151.33952" style="fill: #ff7f0e; stroke: #ff7f0e; stroke-linejoin: miter"/>
     <use xlink:href="#mb9721c0059" x="90.713169" y="144.977103" style="fill: #ff7f0e; stroke: #ff7f0e; stroke-linejoin: miter"/>
     <use xlink:href="#mb9721c0059" x="101.726365" y="141.004191" style="fill: #ff7f0e; stroke: #ff7f0e; stroke-linejoin: miter"/>
     <use xlink:href="#mb9721c0059" x="112.739562" y="138.010113" style="fill: #ff7f0e; stroke: #ff7f0e; stroke-linejoin: miter"/>
     <use xlink:href="#mb9721c0059" x="123.752758" y="136.340338" style="fill: #ff7f0e; stroke: #ff7f0e; stroke-linejoin: miter"/>
     <use xlink:href="#mb9721c0059" x="134.765955" y="134.670564" style="fill: #ff7f0e; stroke: #ff7f0e; stroke-linejoin: miter"/>
     <use xlink:href="#mb9721c0059" x="145.779151" y="133.720519" style="fill: #ff7f0e; stroke: #ff7f0e; stroke-linejoin: miter"/>
     <use xlink:href="#mb9721c0059" x="156.792348" y="133.000789" style="fill: #ff7f0e; stroke: #ff7f0e; stroke-linejoin: miter"/>
     <use xlink:href="#mb9721c0059" x="167.805544" y="131.935588" style="fill: #ff7f0e; stroke: #ff7f0e; stroke-linejoin: miter"/>
     <use xlink:href="#mb9721c0059" x="178.818741" y="131.215857" style="fill: #ff7f0e; stroke: #ff7f0e; stroke-linejoin: miter"/>
     <use xlink:href="#mb9721c0059" x="189.831937" y="130.75523" style="fill: #ff7f0e; stroke: #ff7f0e; stroke-linejoin: miter"/>
     <use xlink:href="#mb9721c0059" x="200.845134" y="130.237024" style="fill: #ff7f0e; stroke: #ff7f0e; stroke-linejoin: miter"/>
     <use xlink:href="#mb9721c0059" x="211.85833" y="129.747607" style="fill: #ff7f0e; stroke: #ff7f0e; stroke-linejoin: miter"/>
     <use xlink:href="#mb9721c0059" x="222.871527" y="129.402137" style="fill: #ff7f0e; stroke: #ff7f0e; stroke-linejoin: miter"/>
     <use xlink:href="#mb9721c0059" x="233.884723" y="129.258191" style="fill: #ff7f0e; stroke: #ff7f0e; stroke-linejoin: miter"/>
     <use xlink:href="#mb9721c0059" x="244.89792" y="129.114245" style="fill: #ff7f0e; stroke: #ff7f0e; stroke-linejoin: miter"/>
     <use xlink:href="#mb9721c0059" x="255.911116" y="128.711196" style="fill: #ff7f0e; stroke: #ff7f0e; stroke-linejoin: miter"/>
     <use xlink:href="#mb9721c0059" x="266.924313" y="128.509671" style="fill: #ff7f0e; stroke: #ff7f0e; stroke-linejoin: miter"/>
     <use xlink:href="#mb9721c0059" x="277.937509" y="128.365725" style="fill: #ff7f0e; stroke: #ff7f0e; stroke-linejoin: miter"/>
     <use xlink:href="#mb9721c0059" x="288.950706" y="128.221779" style="fill: #ff7f0e; stroke: #ff7f0e; stroke-linejoin: miter"/>
     <use xlink:href="#mb9721c0059" x="299.963902" y="128.135411" style="fill: #ff7f0e; stroke: #ff7f0e; stroke-linejoin: miter"/>
     <use xlink:href="#mb9721c0059" x="310.977099" y="127.905097" style="fill: #ff7f0e; stroke: #ff7f0e; stroke-linejoin: miter"/>
     <use xlink:href="#mb9721c0059" x="321.990295" y="127.645994" style="fill: #ff7f0e; stroke: #ff7f0e; stroke-linejoin: miter"/>
     <use xlink:href="#mb9721c0059" x="333.003492" y="127.530838" style="fill: #ff7f0e; stroke: #ff7f0e; stroke-linejoin: miter"/>
     <use xlink:href="#mb9721c0059" x="344.016688" y="127.44447" style="fill: #ff7f0e; stroke: #ff7f0e; stroke-linejoin: miter"/>
     <use xlink:href="#mb9721c0059" x="355.029885" y="127.242945" style="fill: #ff7f0e; stroke: #ff7f0e; stroke-linejoin: miter"/>
     <use xlink:href="#mb9721c0059" x="366.043081" y="127.098999" style="fill: #ff7f0e; stroke: #ff7f0e; stroke-linejoin: miter"/>
     <use xlink:href="#mb9721c0059" x="377.056277" y="126.926264" style="fill: #ff7f0e; stroke: #ff7f0e; stroke-linejoin: miter"/>
     <use xlink:href="#mb9721c0059" x="388.069474" y="126.753529" style="fill: #ff7f0e; stroke: #ff7f0e; stroke-linejoin: miter"/>
     <use xlink:href="#mb9721c0059" x="399.08267" y="126.638372" style="fill: #ff7f0e; stroke: #ff7f0e; stroke-linejoin: miter"/>
    </g>
   </g>
   <g id="patch_3">
    <path d="M 40.603125 242.918125 
L 40.603125 22.318125 
" style="fill: none; stroke: #000000; stroke-width: 0.8; stroke-linejoin: miter; stroke-linecap: square"/>
   </g>
   <g id="patch_4">
    <path d="M 416.153125 242.918125 
L 416.153125 22.318125 
" style="fill: none; stroke: #000000; stroke-width: 0.8; stroke-linejoin: miter; stroke-linecap: square"/>
   </g>
   <g id="patch_5">
    <path d="M 40.603125 242.918125 
L 416.153125 242.918125 
" style="fill: none; stroke: #000000; stroke-width: 0.8; stroke-linejoin: miter; stroke-linecap: square"/>
   </g>
   <g id="patch_6">
    <path d="M 40.603125 22.318125 
L 416.153125 22.318125 
" style="fill: none; stroke: #000000; stroke-width: 0.8; stroke-linejoin: miter; stroke-linecap: square"/>
   </g>
   <g id="text_17">
    <!-- Chao2 saturation curve -->
    <g transform="translate(158.001875 16.318125) scale(0.12 -0.12)">
     <defs>
      <path id="DejaVuSans-43" d="M 4122 4306 
L 4122 3641 
Q 3803 3938 3442 4084 
Q 3081 4231 2675 4231 
Q 1875 4231 1450 3742 
Q 1025 3253 1025 2328 
Q 1025 1406 1450 917 
Q 1875 428 2675 428 
Q 3081 428 3442 575 
Q 3803 722 4122 1019 
L 4122 359 
Q 3791 134 3420 21 
Q 3050 -91 2638 -91 
Q 1578 -91 968 557 
Q 359 1206 359 2328 
Q 359 3453 968 4101 
Q 1578 4750 2638 4750 
Q 3056 4750 3426 4639 
Q 3797 4528 4122 4306 
z
" transform="scale(0.015625)"/>
      <path id="DejaVuSans-68" d="M 3513 2113 
L 3513 0 
L 2938 0 
L 2938 2094 
Q 2938 2591 2744 2837 
Q 2550 3084 2163 3084 
Q 1697 3084 1428 2787 
Q 1159 2491 1159 1978 
L 1159 0 
L 581 0 
L 581 4863 
L 1159 4863 
L 1159 2956 
Q 1366 3272 1645 3428 
Q 1925 3584 2291 3584 
Q 2894 3584 3203 3211 
Q 3513 2838 3513 2113 
z
" transform="scale(0.015625)"/>
      <path id="DejaVuSans-6e" d="M 3513 2113 
L 3513 0 
L 2938 0 
L 2938 2094 
Q 2938 2591 2744 2837 
Q 2550 3084 2163 3084 
Q 1697 3084 1428 2787 
Q 1159 2491 1159 1978 
L 1159 0 
L 581 0 
L 581 3500 
L 1159 3500 
L 1159 2956 
Q 1366 3272 1645 3428 
Q 1925 3584 2291 3584 
Q 2894 3584 3203 3211 
Q 3513 2838 3513 2113 
z
" transform="scale(0.015625)"/>
      <path id="DejaVuSans-76" d="M 191 3500 
L 800 3500 
L 1894 563 
L 2988 3500 
L 3597 3500 
L 2284 0 
L 1503 0 
L 191 3500 
z
" transform="scale(0.015625)"/>
     </defs>
     <use xlink:href="#DejaVuSans-43"/>
     <use xlink:href="#DejaVuSans-68" transform="translate(69.824219 0)"/>
     <use xlink:href="#DejaVuSans-61" transform="translate(133.203125 0)"/>
     <use xlink:href="#DejaVuSans-6f" transform="translate(194.482422 0)"/>
     <use xlink:href="#DejaVuSans-32" transform="translate(255.664062 0)"/>
     <use xlink:href="#DejaVuSans-20" transform="translate(319.287109 0)"/>
     <use xlink:href="#DejaVuSans-73" transform="translate(351.074219 0)"/>
     <use xlink:href="#DejaVuSans-61" transform="translate(403.173828 0)"/>
     <use xlink:href="#DejaVuSans-74" transform="translate(464.453125 0)"/>
     <use xlink:href="#DejaVuSans-75" transform="translate(503.662109 0)"/>
     <use xlink:href="#DejaVuSans-72" transform="translate(567.041016 0)"/>
     <use xlink:href="#DejaVuSans-61" transform="translate(608.154297 0)"/>
     <use xlink:href="#DejaVuSans-74" transform="translate(669.433594 0)"/>
     <use xlink:href="#DejaVuSans-69" transform="translate(708.642578 0)"/>
     <use xlink:href="#DejaVuSans-6f" transform="translate(736.425781 0)"/>
     <use xlink:href="#DejaVuSans-6e" transform="translate(797.607422 0)"/>
     <use xlink:href="#DejaVuSans-20" transform="translate(860.986328 0)"/>
     <use xlink:href="#DejaVuSans-63" transform="translate(892.773438 0)"/>
     <use xlink:href="#DejaVuSans-75" transform="translate(947.753906 0)"/>
     <use xlink:href="#DejaVuSans-72" transform="translate(1011.132812 0)"/>
     <use xlink:href="#DejaVuSans-76" transform="translate(1052.246094 0)"/>
     <use xlink:href="#DejaVuSans-65" transform="translate(1111.425781 0)"/>
    </g>
   </g>
   <g id="legend_1">
    <g id="line2d_17">
     <path d="M 292.264062 35.416562 
L 302.264062 35.416562 
L 312.264062 35.416562 
" style="fill: none; stroke: #1f77b4; stroke-width: 1.5; stroke-linecap: square"/>
     <g>
      <use xlink:href="#mcfd36be8ac" x="302.264062" y="35.416562" style="fill: #1f77b4; stroke: #1f77b4"/>
     </g>
    </g>
    <g id="text_18">
     <!-- S_Chao2_bc -->
     <g transform="translate(320.264062 38.916562) scale(0.1 -0.1)">
      <defs>
       <path id="DejaVuSans-53" d="M 3425 4513 
L 3425 3897 
Q 3066 4069 2747 4153 
Q 2428 4238 2131 4238 
Q 1616 4238 1336 4038 
Q 1056 3838 1056 3469 
Q 1056 3159 1242 3001 
Q 1428 2844 1947 2747 
L 2328 2669 
Q 3034 2534 3370 2195 
Q 3706 1856 3706 1288 
Q 3706 609 3251 259 
Q 2797 -91 1919 -91 
Q 1588 -91 1214 -16 
Q 841 59 441 206 
L 441 856 
Q 825 641 1194 531 
Q 1563 422 1919 422 
Q 2459 422 2753 634 
Q 3047 847 3047 1241 
Q 3047 1584 2836 1778 
Q 2625 1972 2144 2069 
L 1759 2144 
Q 1053 2284 737 2584 
Q 422 2884 422 3419 
Q 422 4038 858 4394 
Q 1294 4750 2059 4750 
Q 2388 4750 2728 4690 
Q 3069 4631 3425 4513 
z
" transform="scale(0.015625)"/>
       <path id="DejaVuSans-5f" d="M 3263 -1063 
L 3263 -1509 
L -63 -1509 
L -63 -1063 
L 3263 -1063 
z
" transform="scale(0.015625)"/>
      </defs>
      <use xlink:href="#DejaVuSans-53"/>
      <use xlink:href="#DejaVuSans-5f" transform="translate(63.476562 0)"/>
      <use xlink:href="#DejaVuSans-43" transform="translate(113.476562 0)"/>
      <use xlink:href="#DejaVuSans-68" transform="translate(183.300781 0)"/>
      <use xlink:href="#DejaVuSans-61" transform="translate(246.679688 0)"/>
      <use xlink:href="#DejaVuSans-6f" transform="translate(307.958984 0)"/>
      <use xlink:href="#DejaVuSans-32" transform="translate(369.140625 0)"/>
      <use xlink:href="#DejaVuSans-5f" transform="translate(432.763672 0)"/>
      <use xlink:href="#DejaVuSans-62" transform="translate(482.763672 0)"/>
      <use xlink:href="#DejaVuSans-63" transform="translate(546.240234 0)"/>
     </g>
    </g>
    <g id="line2d_18">
     <path d="M 292.264062 50.372813 
L 302.264062 50.372813 
L 312.264062 50.372813 
" style="fill: none; stroke-dasharray: 5.55,2.4; stroke-dashoffset: 0; stroke: #ff7f0e; stroke-width: 1.5"/>
     <g>
      <use xlink:href="#mb9721c0059" x="302.264062" y="50.372813" style="fill: #ff7f0e; stroke: #ff7f0e; stroke-linejoin: miter"/>
     </g>
    </g>
    <g id="text_19">
     <!-- observed species -->
     <g transform="translate(320.264062 53.872813) scale(0.1 -0.1)">
      <defs>
       <path id="DejaVuSans-64" d="M 2906 2969 
L 2906 4863 
L 3481 4863 
L 3481 0 
L 2906 0 
L 2906 525 
Q 2725 213 2448 61 
Q 2172 -91 1784 -91 
Q 1150 -91 751 415 
Q 353 922 353 1747 
Q 353 2572 751 3078 
Q 1150 3584 1784 3584 
Q 2172 3584 2448 3432 
Q 2725 3281 2906 2969 
z
M 947 1747 
Q 947 1113 1208 752 
Q 1469 391 1925 391 
Q 2381 391 2643 752 
Q 2906 1113 2906 1747 
Q 2906 2381 2643 2742 
Q 2381 3103 1925 3103 
Q 1469 3103 1208 2742 
Q 947 2381 947 1747 
z
" transform="scale(0.015625)"/>
      </defs>
      <use xlink:href="#DejaVuSans-6f"/>
      <use xlink:href="#DejaVuSans-62" transform="translate(61.181641 0)"/>
      <use xlink:href="#DejaVuSans-73" transform="translate(124.658203 0)"/>
      <use xlink:href="#DejaVuSans-65" transform="translate(176.757812 0)"/>
      <use xlink:href="#DejaVuSans-72" transform="translate(238.28125 0)"/>
      <use xlink:href="#DejaVuSans-76" transform="translate(279.394531 0)"/>
      <use xlink:href="#DejaVuSans-65" transform="translate(338.574219 0)"/>
      <use xlink:href="#DejaVuSans-64" transform="translate(400.097656 0)"/>
      <use xlink:href="#DejaVuSans-20" transform="translate(463.574219 0)"/>
      <use xlink:href="#DejaVuSans-73" transform="translate(495.361328 0)"/>
      <use xlink:href="#DejaVuSans-70" transform="translate(547.460938 0)"/>
      <use xlink:href="#DejaVuSans-65" transform="translate(610.9375 0)"/>
      <use xlink:href="#DejaVuSans-63" transform="translate(672.460938 0)"/>
      <use xlink:href="#DejaVuSans-69" transform="translate(727.441406 0)"/>
      <use xlink:href="#DejaVuSans-65" transform="translate(755.224609 0)"/>
      <use xlink:href="#DejaVuSans-73" transform="translate(816.748047 0)"/>
     </g>
    </g>
   </g>
  </g>
 </g>
 <defs>
  <clipPath id="p3145711689">
   <rect x="40.603125" y="22.318125" width="375.55" height="220.6"/>
  </clipPath>
 </defs>
</svg>
