<?xml version="1.0" encoding="utf-8" standalone="no"?>
<!DOCTYPE svg PUBLIC "-//W3C//DTD SVG 1.1//EN"
  "http://www.w3.org/Graphics/SVG/1.1/DTD/svg11.dtd">
<svg xmlns:xlink="http://www.w3.org/1999/xlink" width="423.502307pt" height="280.474375pt" viewBox="0 0 423.502307 280.474375" xmlns="http://www.w3.org/2000/svg" version="1.1">
 <metadata>
  <rdf:RDF xmlns:dc="http://purl.org/dc/elements/1.1/" xmlns:cc="http://creativecommons.org/ns#" xmlns:rdf="http://www.w3.org/1999/02/22-rdf-syntax-ns#">
   <cc:Work>
    <dc:type rdf:resource="http://purl.org/dc/dcmitype/StillImage"/>
    <dc:date>2026-06-07T22:30:18.950953</dc:date>
    <dc:format>image/svg+xml</dc:format>
    <dc:creator>
     <cc:Agent>
      <dc:title>Matplotlib v3.10.9, https://matplotlib.org/</dc:title>
     </cc:Agent>
    </dc:creator>
   </cc:Work>
  </rdf:RDF>
 </metadata>
 <defs>
  <style type="text/css">*{stroke-linejoin: round; stroke-linecap: butt}</style>
 </defs>
 <g id="figure_1">
  <g id="patch_1">
   <path d="M 0 280.474375 
L 423.502307 280.474375 
L 423.502307 0 
L 0 0 
z
" style="fill: #ffffff"/>
  </g>
  <g id="axes_1">
   <g id="patch_2">
    <path d="M 40.603125 242.918125 
L 413.191737 242.918125 
L 413.191737 22.318125 
L 40.603125 22.318125 
z
" style="fill: #ffffff"/>
   </g>
   <g id="FillBetweenPolyCollection_1">
    <path d="M 57.538971 111.222242 
L 57.538971 197.038444 
L 75.366177 217.569176 
L 93.193384 174.778796 
L 111.02059 164.99702 
L 128.847796 155.542833 
L 146.675003 145.378794 
L 164.502209 146.084428 
L 182.329415 135.943732 
L 200.156622 129.579833 
L 217.983828 114.956464 
L 217.983828 114.956464 
L 217.983828 114.956464 
L 200.156622 102.477034 
L 182.329415 98.576794 
L 164.502209 89.251739 
L 146.675003 98.623768 
L 128.847796 104.944119 
L 111.02059 103.24555 
L 93.193384 103.544252 
L 75.366177 32.345398 
L 57.538971 111.222242 
z
" clip-path="url(#p4b81324805)" style="fill: #1f77b4; fill-opacity: 0.2"/>
   </g>
   <g id="FillBetweenPolyCollection_2">
    <path d="M 57.538971 172.442928 
L 57.538971 232.890852 
L 75.366177 203.117739 
L 93.193384 183.339043 
L 111.02059 170.898054 
L 128.847796 164.436751 
L 146.675003 157.298986 
L 164.502209 151.999703 
L 182.329415 146.899464 
L 200.156622 141.659435 
L 217.983828 134.901985 
L 217.983828 134.901985 
L 217.983828 134.901985 
L 200.156622 133.856206 
L 182.329415 136.122946 
L 164.502209 138.692665 
L 146.675003 140.818556 
L 128.847796 144.288181 
L 111.02059 148.352673 
L 93.193384 154.025843 
L 75.366177 161.092004 
L 57.538971 172.442928 
z
" clip-path="url(#p4b81324805)" style="fill: #ff7f0e; fill-opacity: 0.12"/>
   </g>
   <g id="FillBetweenPolyCollection_3">
    <path d="M 57.538971 75.825414 
L 57.538971 217.421068 
L 75.366177 189.632672 
L 93.193384 175.489905 
L 111.02059 175.114472 
L 128.847796 160.969503 
L 146.675003 164.234482 
L 164.502209 159.320596 
L 182.329415 156.032443 
L 200.156622 158.355652 
L 217.983828 155.093715 
L 235.811034 151.946732 
L 253.638241 150.560721 
L 271.465447 147.453212 
L 289.292653 145.038748 
L 307.11986 144.84858 
L 324.947066 144.083735 
L 342.774272 143.061516 
L 360.601479 143.061516 
L 378.428685 143.061516 
L 396.255891 143.061516 
L 396.255891 143.061516 
L 396.255891 143.061516 
L 378.428685 143.061516 
L 360.601479 143.061516 
L 342.774272 143.061516 
L 324.947066 141.9713 
L 307.11986 140.682485 
L 289.292653 140.005058 
L 271.465447 135.443632 
L 253.638241 131.831657 
L 235.811034 128.119327 
L 217.983828 120.353887 
L 200.156622 114.446857 
L 182.329415 115.187423 
L 164.502209 109.603361 
L 146.675003 97.414867 
L 128.847796 108.266474 
L 111.02059 102.169548 
L 93.193384 96.857106 
L 75.366177 91.646889 
L 57.538971 75.825414 
z
" clip-path="url(#p4b81324805)" style="fill: #2ca02c; fill-opacity: 0.2"/>
   </g>
   <g id="FillBetweenPolyCollection_4">
    <path d="M 57.538971 175.296075 
L 57.538971 223.754866 
L 75.366177 201.417358 
L 93.193384 183.882676 
L 111.02059 176.631851 
L 128.847796 167.004529 
L 146.675003 160.159553 
L 164.502209 156.018734 
L 182.329415 152.733032 
L 200.156622 150.417379 
L 217.983828 148.993078 
L 235.811034 147.468463 
L 253.638241 147.067256 
L 271.465447 144.701706 
L 289.292653 144.369907 
L 307.11986 143.957011 
L 324.947066 143.957011 
L 342.774272 143.061516 
L 360.601479 143.061516 
L 378.428685 143.061516 
L 396.255891 143.061516 
L 396.255891 143.061516 
L 396.255891 143.061516 
L 378.428685 143.061516 
L 360.601479 143.061516 
L 342.774272 143.061516 
L 324.947066 142.329211 
L 307.11986 142.329211 
L 289.292653 142.079505 
L 271.465447 141.910897 
L 253.638241 140.606086 
L 235.811034 140.612856 
L 217.983828 140.556957 
L 200.156622 140.601371 
L 182.329415 141.059959 
L 164.502209 141.119665 
L 146.675003 142.200945 
L 128.847796 144.657835 
L 111.02059 149.228096 
L 93.193384 155.032522 
L 75.366177 162.384409 
L 57.538971 175.296075 
z
" clip-path="url(#p4b81324805)" style="fill: #d62728; fill-opacity: 0.12"/>
   </g>
   <g id="matplotlib.axis_1">
    <g id="xtick_1">
     <g id="line2d_1">
      <defs>
       <path id="m57742cdd8f" d="M 0 0 
L 0 3.5 
" style="stroke: #000000; stroke-width: 0.8"/>
      </defs>
      <g>
       <use xlink:href="#m57742cdd8f" x="48.625368" y="242.918125" style="stroke: #000000; stroke-width: 0.8"/>
      </g>
     </g>
     <g id="text_1">
      <!-- 2.5 -->
      <g transform="translate(40.673805 257.516563) scale(0.1 -0.1)">
       <defs>
        <path id="DejaVuSans-32" d="M 1228 531 
L 3431 531 
L 3431 0 
L 469 0 
L 469 531 
Q 828 903 1448 1529 
Q 2069 2156 2228 2338 
Q 2531 2678 2651 2914 
Q 2772 3150 2772 3378 
Q 2772 3750 2511 3984 
Q 2250 4219 1831 4219 
Q 1534 4219 1204 4116 
Q 875 4013 500 3803 
L 500 4441 
Q 881 4594 1212 4672 
Q 1544 4750 1819 4750 
Q 2544 4750 2975 4387 
Q 3406 4025 3406 3419 
Q 3406 3131 3298 2873 
Q 3191 2616 2906 2266 
Q 2828 2175 2409 1742 
Q 1991 1309 1228 531 
z
" transform="scale(0.015625)"/>
        <path id="DejaVuSans-2e" d="M 684 794 
L 1344 794 
L 1344 0 
L 684 0 
L 684 794 
z
" transform="scale(0.015625)"/>
        <path id="DejaVuSans-35" d="M 691 4666 
L 3169 4666 
L 3169 4134 
L 1269 4134 
L 1269 2991 
Q 1406 3038 1543 3061 
Q 1681 3084 1819 3084 
Q 2600 3084 3056 2656 
Q 3513 2228 3513 1497 
Q 3513 744 3044 326 
Q 2575 -91 1722 -91 
Q 1428 -91 1123 -41 
Q 819 9 494 109 
L 494 744 
Q 775 591 1075 516 
Q 1375 441 1709 441 
Q 2250 441 2565 725 
Q 2881 1009 2881 1497 
Q 2881 1984 2565 2268 
Q 2250 2553 1709 2553 
Q 1456 2553 1204 2497 
Q 953 2441 691 2322 
L 691 4666 
z
" transform="scale(0.015625)"/>
       </defs>
       <use xlink:href="#DejaVuSans-32"/>
       <use xlink:href="#DejaVuSans-2e" transform="translate(63.623047 0)"/>
       <use xlink:href="#DejaVuSans-35" transform="translate(95.410156 0)"/>
      </g>
     </g>
    </g>
    <g id="xtick_2">
     <g id="line2d_2">
      <g>
       <use xlink:href="#m57742cdd8f" x="93.193384" y="242.918125" style="stroke: #000000; stroke-width: 0.8"/>
      </g>
     </g>
     <g id="text_2">
      <!-- 5.0 -->
      <g transform="translate(85.241821 257.516563) scale(0.1 -0.1)">
       <defs>
        <path id="DejaVuSans-30" d="M 2034 4250 
Q 1547 4250 1301 3770 
Q 1056 3291 1056 2328 
Q 1056 1369 1301 889 
Q 1547 409 2034 409 
Q 2525 409 2770 889 
Q 3016 1369 3016 2328 
Q 3016 3291 2770 3770 
Q 2525 4250 2034 4250 
z
M 2034 4750 
Q 2819 4750 3233 4129 
Q 3647 3509 3647 2328 
Q 3647 1150 3233 529 
Q 2819 -91 2034 -91 
Q 1250 -91 836 529 
Q 422 1150 422 2328 
Q 422 3509 836 4129 
Q 1250 4750 2034 4750 
z
" transform="scale(0.015625)"/>
       </defs>
       <use xlink:href="#DejaVuSans-35"/>
       <use xlink:href="#DejaVuSans-2e" transform="translate(63.623047 0)"/>
       <use xlink:href="#DejaVuSans-30" transform="translate(95.410156 0)"/>
      </g>
     </g>
    </g>
    <g id="xtick_3">
     <g id="line2d_3">
      <g>
       <use xlink:href="#m57742cdd8f" x="137.7614" y="242.918125" style="stroke: #000000; stroke-width: 0.8"/>
      </g>
     </g>
     <g id="text_3">
      <!-- 7.5 -->
      <g transform="translate(129.809837 257.516563) scale(0.1 -0.1)">
       <defs>
        <path id="DejaVuSans-37" d="M 525 4666 
L 3525 4666 
L 3525 4397 
L 1831 0 
L 1172 0 
L 2766 4134 
L 525 4134 
L 525 4666 
z
" transform="scale(0.015625)"/>
       </defs>
       <use xlink:href="#DejaVuSans-37"/>
       <use xlink:href="#DejaVuSans-2e" transform="translate(63.623047 0)"/>
       <use xlink:href="#DejaVuSans-35" transform="translate(95.410156 0)"/>
      </g>
     </g>
    </g>
    <g id="xtick_4">
     <g id="line2d_4">
      <g>
       <use xlink:href="#m57742cdd8f" x="182.329415" y="242.918125" style="stroke: #000000; stroke-width: 0.8"/>
      </g>
     </g>
     <g id="text_4">
      <!-- 10.0 -->
      <g transform="translate(171.196603 257.516563) scale(0.1 -0.1)">
       <defs>
        <path id="DejaVuSans-31" d="M 794 531 
L 1825 531 
L 1825 4091 
L 703 3866 
L 703 4441 
L 1819 4666 
L 2450 4666 
L 2450 531 
L 3481 531 
L 3481 0 
L 794 0 
L 794 531 
z
" transform="scale(0.015625)"/>
       </defs>
       <use xlink:href="#DejaVuSans-31"/>
       <use xlink:href="#DejaVuSans-30" transform="translate(63.623047 0)"/>
       <use xlink:href="#DejaVuSans-2e" transform="translate(127.246094 0)"/>
       <use xlink:href="#DejaVuSans-30" transform="translate(159.033203 0)"/>
      </g>
     </g>
    </g>
    <g id="xtick_5">
     <g id="line2d_5">
      <g>
       <use xlink:href="#m57742cdd8f" x="226.897431" y="242.918125" style="stroke: #000000; stroke-width: 0.8"/>
      </g>
     </g>
     <g id="text_5">
      <!-- 12.5 -->
      <g transform="translate(215.764619 257.516563) scale(0.1 -0.1)">
       <use xlink:href="#DejaVuSans-31"/>
       <use xlink:href="#DejaVuSans-32" transform="translate(63.623047 0)"/>
       <use xlink:href="#DejaVuSans-2e" transform="translate(127.246094 0)"/>
       <use xlink:href="#DejaVuSans-35" transform="translate(159.033203 0)"/>
      </g>
     </g>
    </g>
    <g id="xtick_6">
     <g id="line2d_6">
      <g>
       <use xlink:href="#m57742cdd8f" x="271.465447" y="242.918125" style="stroke: #000000; stroke-width: 0.8"/>
      </g>
     </g>
     <g id="text_6">
      <!-- 15.0 -->
      <g transform="translate(260.332635 257.516563) scale(0.1 -0.1)">
       <use xlink:href="#DejaVuSans-31"/>
       <use xlink:href="#DejaVuSans-35" transform="translate(63.623047 0)"/>
       <use xlink:href="#DejaVuSans-2e" transform="translate(127.246094 0)"/>
       <use xlink:href="#DejaVuSans-30" transform="translate(159.033203 0)"/>
      </g>
     </g>
    </g>
    <g id="xtick_7">
     <g id="line2d_7">
      <g>
       <use xlink:href="#m57742cdd8f" x="316.033463" y="242.918125" style="stroke: #000000; stroke-width: 0.8"/>
      </g>
     </g>
     <g id="text_7">
      <!-- 17.5 -->
      <g transform="translate(304.90065 257.516563) scale(0.1 -0.1)">
       <use xlink:href="#DejaVuSans-31"/>
       <use xlink:href="#DejaVuSans-37" transform="translate(63.623047 0)"/>
       <use xlink:href="#DejaVuSans-2e" transform="translate(127.246094 0)"/>
       <use xlink:href="#DejaVuSans-35" transform="translate(159.033203 0)"/>
      </g>
     </g>
    </g>
    <g id="xtick_8">
     <g id="line2d_8">
      <g>
       <use xlink:href="#m57742cdd8f" x="360.601479" y="242.918125" style="stroke: #000000; stroke-width: 0.8"/>
      </g>
     </g>
     <g id="text_8">
      <!-- 20.0 -->
      <g transform="translate(349.468666 257.516563) scale(0.1 -0.1)">
       <use xlink:href="#DejaVuSans-32"/>
       <use xlink:href="#DejaVuSans-30" transform="translate(63.623047 0)"/>
       <use xlink:href="#DejaVuSans-2e" transform="translate(127.246094 0)"/>
       <use xlink:href="#DejaVuSans-30" transform="translate(159.033203 0)"/>
      </g>
     </g>
    </g>
    <g id="xtick_9">
     <g id="line2d_9">
      <g>
       <use xlink:href="#m57742cdd8f" x="405.169495" y="242.918125" style="stroke: #000000; stroke-width: 0.8"/>
      </g>
     </g>
     <g id="text_9">
      <!-- 22.5 -->
      <g transform="translate(394.036682 257.516563) scale(0.1 -0.1)">
       <use xlink:href="#DejaVuSans-32"/>
       <use xlink:href="#DejaVuSans-32" transform="translate(63.623047 0)"/>
       <use xlink:href="#DejaVuSans-2e" transform="translate(127.246094 0)"/>
       <use xlink:href="#DejaVuSans-35" transform="translate(159.033203 0)"/>
      </g>
     </g>
    </g>
    <g id="text_10">
     <!-- Number of samples -->
     <g transform="translate(178.030244 271.194687) scale(0.1 -0.1)">
      <defs>
       <path id="DejaVuSans-4e" d="M 628 4666 
L 1478 4666 
L 3547 763 
L 3547 4666 
L 4159 4666 
L 4159 0 
L 3309 0 
L 1241 3903 
L 1241 0 
L 628 0 
L 628 4666 
z
" transform="scale(0.015625)"/>
       <path id="DejaVuSans-75" d="M 544 1381 
L 544 3500 
L 1119 3500 
L 1119 1403 
Q 1119 906 1312 657 
Q 1506 409 1894 409 
Q 2359 409 2629 706 
Q 2900 1003 2900 1516 
L 2900 3500 
L 3475 3500 
L 3475 0 
L 2900 0 
L 2900 538 
Q 2691 219 2414 64 
Q 2138 -91 1772 -91 
Q 1169 -91 856 284 
Q 544 659 544 1381 
z
M 1991 3584 
L 1991 3584 
z
" transform="scale(0.015625)"/>
       <path id="DejaVuSans-6d" d="M 3328 2828 
Q 3544 3216 3844 3400 
Q 4144 3584 4550 3584 
Q 5097 3584 5394 3201 
Q 5691 2819 5691 2113 
L 5691 0 
L 5113 0 
L 5113 2094 
Q 5113 2597 4934 2840 
Q 4756 3084 4391 3084 
Q 3944 3084 3684 2787 
Q 3425 2491 3425 1978 
L 3425 0 
L 2847 0 
L 2847 2094 
Q 2847 2600 2669 2842 
Q 2491 3084 2119 3084 
Q 1678 3084 1418 2786 
Q 1159 2488 1159 1978 
L 1159 0 
L 581 0 
L 581 3500 
L 1159 3500 
L 1159 2956 
Q 1356 3278 1631 3431 
Q 1906 3584 2284 3584 
Q 2666 3584 2933 3390 
Q 3200 3197 3328 2828 
z
" transform="scale(0.015625)"/>
       <path id="DejaVuSans-62" d="M 3116 1747 
Q 3116 2381 2855 2742 
Q 2594 3103 2138 3103 
Q 1681 3103 1420 2742 
Q 1159 2381 1159 1747 
Q 1159 1113 1420 752 
Q 1681 391 2138 391 
Q 2594 391 2855 752 
Q 3116 1113 3116 1747 
z
M 1159 2969 
Q 1341 3281 1617 3432 
Q 1894 3584 2278 3584 
Q 2916 3584 3314 3078 
Q 3713 2572 3713 1747 
Q 3713 922 3314 415 
Q 2916 -91 2278 -91 
Q 1894 -91 1617 61 
Q 1341 213 1159 525 
L 1159 0 
L 581 0 
L 581 4863 
L 1159 4863 
L 1159 2969 
z
" transform="scale(0.015625)"/>
       <path id="DejaVuSans-65" d="M 3597 1894 
L 3597 1613 
L 953 1613 
Q 991 1019 1311 708 
Q 1631 397 2203 397 
Q 2534 397 2845 478 
Q 3156 559 3463 722 
L 3463 178 
Q 3153 47 2828 -22 
Q 2503 -91 2169 -91 
Q 1331 -91 842 396 
Q 353 884 353 1716 
Q 353 2575 817 3079 
Q 1281 3584 2069 3584 
Q 2775 3584 3186 3129 
Q 3597 2675 3597 1894 
z
M 3022 2063 
Q 3016 2534 2758 2815 
Q 2500 3097 2075 3097 
Q 1594 3097 1305 2825 
Q 1016 2553 972 2059 
L 3022 2063 
z
" transform="scale(0.015625)"/>
       <path id="DejaVuSans-72" d="M 2631 2963 
Q 2534 3019 2420 3045 
Q 2306 3072 2169 3072 
Q 1681 3072 1420 2755 
Q 1159 2438 1159 1844 
L 1159 0 
L 581 0 
L 581 3500 
L 1159 3500 
L 1159 2956 
Q 1341 3275 1631 3429 
Q 1922 3584 2338 3584 
Q 2397 3584 2469 3576 
Q 2541 3569 2628 3553 
L 2631 2963 
z
" transform="scale(0.015625)"/>
       <path id="DejaVuSans-20" transform="scale(0.015625)"/>
       <path id="DejaVuSans-6f" d="M 1959 3097 
Q 1497 3097 1228 2736 
Q 959 2375 959 1747 
Q 959 1119 1226 758 
Q 1494 397 1959 397 
Q 2419 397 2687 759 
Q 2956 1122 2956 1747 
Q 2956 2369 2687 2733 
Q 2419 3097 1959 3097 
z
M 1959 3584 
Q 2709 3584 3137 3096 
Q 3566 2609 3566 1747 
Q 3566 888 3137 398 
Q 2709 -91 1959 -91 
Q 1206 -91 779 398 
Q 353 888 353 1747 
Q 353 2609 779 3096 
Q 1206 3584 1959 3584 
z
" transform="scale(0.015625)"/>
       <path id="DejaVuSans-66" d="M 2375 4863 
L 2375 4384 
L 1825 4384 
Q 1516 4384 1395 4259 
Q 1275 4134 1275 3809 
L 1275 3500 
L 2222 3500 
L 2222 3053 
L 1275 3053 
L 1275 0 
L 697 0 
L 697 3053 
L 147 3053 
L 147 3500 
L 697 3500 
L 697 3744 
Q 697 4328 969 4595 
Q 1241 4863 1831 4863 
L 2375 4863 
z
" transform="scale(0.015625)"/>
       <path id="DejaVuSans-73" d="M 2834 3397 
L 2834 2853 
Q 2591 2978 2328 3040 
Q 2066 3103 1784 3103 
Q 1356 3103 1142 2972 
Q 928 2841 928 2578 
Q 928 2378 1081 2264 
Q 1234 2150 1697 2047 
L 1894 2003 
Q 2506 1872 2764 1633 
Q 3022 1394 3022 966 
Q 3022 478 2636 193 
Q 2250 -91 1575 -91 
Q 1294 -91 989 -36 
Q 684 19 347 128 
L 347 722 
Q 666 556 975 473 
Q 1284 391 1588 391 
Q 1994 391 2212 530 
Q 2431 669 2431 922 
Q 2431 1156 2273 1281 
Q 2116 1406 1581 1522 
L 1381 1569 
Q 847 1681 609 1914 
Q 372 2147 372 2553 
Q 372 3047 722 3315 
Q 1072 3584 1716 3584 
Q 2034 3584 2315 3537 
Q 2597 3491 2834 3397 
z
" transform="scale(0.015625)"/>
       <path id="DejaVuSans-61" d="M 2194 1759 
Q 1497 1759 1228 1600 
Q 959 1441 959 1056 
Q 959 750 1161 570 
Q 1363 391 1709 391 
Q 2188 391 2477 730 
Q 2766 1069 2766 1631 
L 2766 1759 
L 2194 1759 
z
M 3341 1997 
L 3341 0 
L 2766 0 
L 2766 531 
Q 2569 213 2275 61 
Q 1981 -91 1556 -91 
Q 1019 -91 701 211 
Q 384 513 384 1019 
Q 384 1609 779 1909 
Q 1175 2209 1959 2209 
L 2766 2209 
L 2766 2266 
Q 2766 2663 2505 2880 
Q 2244 3097 1772 3097 
Q 1472 3097 1187 3025 
Q 903 2953 641 2809 
L 641 3341 
Q 956 3463 1253 3523 
Q 1550 3584 1831 3584 
Q 2591 3584 2966 3190 
Q 3341 2797 3341 1997 
z
" transform="scale(0.015625)"/>
       <path id="DejaVuSans-70" d="M 1159 525 
L 1159 -1331 
L 581 -1331 
L 581 3500 
L 1159 3500 
L 1159 2969 
Q 1341 3281 1617 3432 
Q 1894 3584 2278 3584 
Q 2916 3584 3314 3078 
Q 3713 2572 3713 1747 
Q 3713 922 3314 415 
Q 2916 -91 2278 -91 
Q 1894 -91 1617 61 
Q 1341 213 1159 525 
z
M 3116 1747 
Q 3116 2381 2855 2742 
Q 2594 3103 2138 3103 
Q 1681 3103 1420 2742 
Q 1159 2381 1159 1747 
Q 1159 1113 1420 752 
Q 1681 391 2138 391 
Q 2594 391 2855 752 
Q 3116 1113 3116 1747 
z
" transform="scale(0.015625)"/>
       <path id="DejaVuSans-6c" d="M 603 4863 
L 1178 4863 
L 1178 0 
L 603 0 
L 603 4863 
z
" transform="scale(0.015625)"/>
      </defs>
      <use xlink:href="#DejaVuSans-4e"/>
      <use xlink:href="#DejaVuSans-75" transform="translate(74.804688 0)"/>
      <use xlink:href="#DejaVuSans-6d" transform="translate(138.183594 0)"/>
      <use xlink:href="#DejaVuSans-62" transform="translate(235.595703 0)"/>
      <use xlink:href="#DejaVuSans-65" transform="translate(299.072266 0)"/>
      <use xlink:href="#DejaVuSans-72" transform="translate(360.595703 0)"/>
      <use xlink:href="#DejaVuSans-20" transform="translate(401.708984 0)"/>
      <use xlink:href="#DejaVuSans-6f" transform="translate(433.496094 0)"/>
      <use xlink:href="#DejaVuSans-66" transform="translate(494.677734 0)"/>
      <use xlink:href="#DejaVuSans-20" transform="translate(529.882812 0)"/>
      <use xlink:href="#DejaVuSans-73" transform="translate(561.669922 0)"/>
      <use xlink:href="#DejaVuSans-61" transform="translate(613.769531 0)"/>
      <use xlink:href="#DejaVuSans-6d" transform="translate(675.048828 0)"/>
      <use xlink:href="#DejaVuSans-70" transform="translate(772.460938 0)"/>
      <use xlink:href="#DejaVuSans-6c" transform="translate(835.9375 0)"/>
      <use xlink:href="#DejaVuSans-65" transform="translate(863.720703 0)"/>
      <use xlink:href="#DejaVuSans-73" transform="translate(925.244141 0)"/>
     </g>
    </g>
   </g>
   <g id="matplotlib.axis_2">
    <g id="ytick_1">
     <g id="line2d_10">
      <defs>
       <path id="med1d41451a" d="M 0 0 
L -3.5 0 
" style="stroke: #000000; stroke-width: 0.8"/>
      </defs>
      <g>
       <use xlink:href="#med1d41451a" x="40.603125" y="224.656826" style="stroke: #000000; stroke-width: 0.8"/>
      </g>
     </g>
     <g id="text_11">
      <!-- 30 -->
      <g transform="translate(20.878125 228.456045) scale(0.1 -0.1)">
       <defs>
        <path id="DejaVuSans-33" d="M 2597 2516 
Q 3050 2419 3304 2112 
Q 3559 1806 3559 1356 
Q 3559 666 3084 287 
Q 2609 -91 1734 -91 
Q 1441 -91 1130 -33 
Q 819 25 488 141 
L 488 750 
Q 750 597 1062 519 
Q 1375 441 1716 441 
Q 2309 441 2620 675 
Q 2931 909 2931 1356 
Q 2931 1769 2642 2001 
Q 2353 2234 1838 2234 
L 1294 2234 
L 1294 2753 
L 1863 2753 
Q 2328 2753 2575 2939 
Q 2822 3125 2822 3475 
Q 2822 3834 2567 4026 
Q 2313 4219 1838 4219 
Q 1578 4219 1281 4162 
Q 984 4106 628 3988 
L 628 4550 
Q 988 4650 1302 4700 
Q 1616 4750 1894 4750 
Q 2613 4750 3031 4423 
Q 3450 4097 3450 3541 
Q 3450 3153 3228 2886 
Q 3006 2619 2597 2516 
z
" transform="scale(0.015625)"/>
       </defs>
       <use xlink:href="#DejaVuSans-33"/>
       <use xlink:href="#DejaVuSans-30" transform="translate(63.623047 0)"/>
      </g>
     </g>
    </g>
    <g id="ytick_2">
     <g id="line2d_11">
      <g>
       <use xlink:href="#med1d41451a" x="40.603125" y="183.859171" style="stroke: #000000; stroke-width: 0.8"/>
      </g>
     </g>
     <g id="text_12">
      <!-- 35 -->
      <g transform="translate(20.878125 187.65839) scale(0.1 -0.1)">
       <use xlink:href="#DejaVuSans-33"/>
       <use xlink:href="#DejaVuSans-35" transform="translate(63.623047 0)"/>
      </g>
     </g>
    </g>
    <g id="ytick_3">
     <g id="line2d_12">
      <g>
       <use xlink:href="#med1d41451a" x="40.603125" y="143.061516" style="stroke: #000000; stroke-width: 0.8"/>
      </g>
     </g>
     <g id="text_13">
      <!-- 40 -->
      <g transform="translate(20.878125 146.860734) scale(0.1 -0.1)">
       <defs>
        <path id="DejaVuSans-34" d="M 2419 4116 
L 825 1625 
L 2419 1625 
L 2419 4116 
z
M 2253 4666 
L 3047 4666 
L 3047 1625 
L 3713 1625 
L 3713 1100 
L 3047 1100 
L 3047 0 
L 2419 0 
L 2419 1100 
L 313 1100 
L 313 1709 
L 2253 4666 
z
" transform="scale(0.015625)"/>
       </defs>
       <use xlink:href="#DejaVuSans-34"/>
       <use xlink:href="#DejaVuSans-30" transform="translate(63.623047 0)"/>
      </g>
     </g>
    </g>
    <g id="ytick_4">
     <g id="line2d_13">
      <g>
       <use xlink:href="#med1d41451a" x="40.603125" y="102.263861" style="stroke: #000000; stroke-width: 0.8"/>
      </g>
     </g>
     <g id="text_14">
      <!-- 45 -->
      <g transform="translate(20.878125 106.063079) scale(0.1 -0.1)">
       <use xlink:href="#DejaVuSans-34"/>
       <use xlink:href="#DejaVuSans-35" transform="translate(63.623047 0)"/>
      </g>
     </g>
    </g>
    <g id="ytick_5">
     <g id="line2d_14">
      <g>
       <use xlink:href="#med1d41451a" x="40.603125" y="61.466205" style="stroke: #000000; stroke-width: 0.8"/>
      </g>
     </g>
     <g id="text_15">
      <!-- 50 -->
      <g transform="translate(20.878125 65.265424) scale(0.1 -0.1)">
       <use xlink:href="#DejaVuSans-35"/>
       <use xlink:href="#DejaVuSans-30" transform="translate(63.623047 0)"/>
      </g>
     </g>
    </g>
    <g id="text_16">
     <!-- Number of clusters / species -->
     <g transform="translate(14.798438 203.847813) rotate(-90) scale(0.1 -0.1)">
      <defs>
       <path id="DejaVuSans-63" d="M 3122 3366 
L 3122 2828 
Q 2878 2963 2633 3030 
Q 2388 3097 2138 3097 
Q 1578 3097 1268 2742 
Q 959 2388 959 1747 
Q 959 1106 1268 751 
Q 1578 397 2138 397 
Q 2388 397 2633 464 
Q 2878 531 3122 666 
L 3122 134 
Q 2881 22 2623 -34 
Q 2366 -91 2075 -91 
Q 1284 -91 818 406 
Q 353 903 353 1747 
Q 353 2603 823 3093 
Q 1294 3584 2113 3584 
Q 2378 3584 2631 3529 
Q 2884 3475 3122 3366 
z
" transform="scale(0.015625)"/>
       <path id="DejaVuSans-74" d="M 1172 4494 
L 1172 3500 
L 2356 3500 
L 2356 3053 
L 1172 3053 
L 1172 1153 
Q 1172 725 1289 603 
Q 1406 481 1766 481 
L 2356 481 
L 2356 0 
L 1766 0 
Q 1100 0 847 248 
Q 594 497 594 1153 
L 594 3053 
L 172 3053 
L 172 3500 
L 594 3500 
L 594 4494 
L 1172 4494 
z
" transform="scale(0.015625)"/>
       <path id="DejaVuSans-2f" d="M 1625 4666 
L 2156 4666 
L 531 -594 
L 0 -594 
L 1625 4666 
z
" transform="scale(0.015625)"/>
       <path id="DejaVuSans-69" d="M 603 3500 
L 1178 3500 
L 1178 0 
L 603 0 
L 603 3500 
z
M 603 4863 
L 1178 4863 
L 1178 4134 
L 603 4134 
L 603 4863 
z
" transform="scale(0.015625)"/>
      </defs>
      <use xlink:href="#DejaVuSans-4e"/>
      <use xlink:href="#DejaVuSans-75" transform="translate(74.804688 0)"/>
      <use xlink:href="#DejaVuSans-6d" transform="translate(138.183594 0)"/>
      <use xlink:href="#DejaVuSans-62" transform="translate(235.595703 0)"/>
      <use xlink:href="#DejaVuSans-65" transform="translate(299.072266 0)"/>
      <use xlink:href="#DejaVuSans-72" transform="translate(360.595703 0)"/>
      <use xlink:href="#DejaVuSans-20" transform="translate(401.708984 0)"/>
      <use xlink:href="#DejaVuSans-6f" transform="translate(433.496094 0)"/>
      <use xlink:href="#DejaVuSans-66" transform="translate(494.677734 0)"/>
      <use xlink:href="#DejaVuSans-20" transform="translate(529.882812 0)"/>
      <use xlink:href="#DejaVuSans-63" transform="translate(561.669922 0)"/>
      <use xlink:href="#DejaVuSans-6c" transform="translate(616.650391 0)"/>
      <use xlink:href="#DejaVuSans-75" transform="translate(644.433594 0)"/>
      <use xlink:href="#DejaVuSans-73" transform="translate(707.8125 0)"/>
      <use xlink:href="#DejaVuSans-74" transform="translate(759.912109 0)"/>
      <use xlink:href="#DejaVuSans-65" transform="translate(799.121094 0)"/>
      <use xlink:href="#DejaVuSans-72" transform="translate(860.644531 0)"/>
      <use xlink:href="#DejaVuSans-73" transform="translate(901.757812 0)"/>
      <use xlink:href="#DejaVuSans-20" transform="translate(953.857422 0)"/>
      <use xlink:href="#DejaVuSans-2f" transform="translate(985.644531 0)"/>
      <use xlink:href="#DejaVuSans-20" transform="translate(1019.335938 0)"/>
      <use xlink:href="#DejaVuSans-73" transform="translate(1051.123047 0)"/>
      <use xlink:href="#DejaVuSans-70" transform="translate(1103.222656 0)"/>
      <use xlink:href="#DejaVuSans-65" transform="translate(1166.699219 0)"/>
      <use xlink:href="#DejaVuSans-63" transform="translate(1228.222656 0)"/>
      <use xlink:href="#DejaVuSans-69" transform="translate(1283.203125 0)"/>
      <use xlink:href="#DejaVuSans-65" transform="translate(1310.986328 0)"/>
      <use xlink:href="#DejaVuSans-73" transform="translate(1372.509766 0)"/>
     </g>
    </g>
   </g>
   <g id="line2d_15">
    <path d="M 57.538971 154.130343 
L 75.366177 124.957287 
L 93.193384 139.161524 
L 111.02059 134.121285 
L 128.847796 130.243476 
L 146.675003 122.001281 
L 164.502209 117.668084 
L 182.329415 117.260263 
L 200.156622 116.028433 
L 217.983828 114.956464 
" clip-path="url(#p4b81324805)" style="fill: none; stroke: #1f77b4; stroke-width: 1.5; stroke-linecap: square"/>
    <defs>
     <path id="m295242524f" d="M 0 3 
C 0.795609 3 1.55874 2.683901 2.12132 2.12132 
C 2.683901 1.55874 3 0.795609 3 0 
C 3 -0.795609 2.683901 -1.55874 2.12132 -2.12132 
C 1.55874 -2.683901 0.795609 -3 0 -3 
C -0.795609 -3 -1.55874 -2.683901 -2.12132 -2.12132 
C -2.683901 -1.55874 -3 -0.795609 -3 0 
C -3 0.795609 -2.683901 1.55874 -2.12132 2.12132 
C -1.55874 2.683901 -0.795609 3 0 3 
z
" style="stroke: #1f77b4"/>
    </defs>
    <g clip-path="url(#p4b81324805)">
     <use xlink:href="#m295242524f" x="57.538971" y="154.130343" style="fill: #1f77b4; stroke: #1f77b4"/>
     <use xlink:href="#m295242524f" x="75.366177" y="124.957287" style="fill: #1f77b4; stroke: #1f77b4"/>
     <use xlink:href="#m295242524f" x="93.193384" y="139.161524" style="fill: #1f77b4; stroke: #1f77b4"/>
     <use xlink:href="#m295242524f" x="111.02059" y="134.121285" style="fill: #1f77b4; stroke: #1f77b4"/>
     <use xlink:href="#m295242524f" x="128.847796" y="130.243476" style="fill: #1f77b4; stroke: #1f77b4"/>
     <use xlink:href="#m295242524f" x="146.675003" y="122.001281" style="fill: #1f77b4; stroke: #1f77b4"/>
     <use xlink:href="#m295242524f" x="164.502209" y="117.668084" style="fill: #1f77b4; stroke: #1f77b4"/>
     <use xlink:href="#m295242524f" x="182.329415" y="117.260263" style="fill: #1f77b4; stroke: #1f77b4"/>
     <use xlink:href="#m295242524f" x="200.156622" y="116.028433" style="fill: #1f77b4; stroke: #1f77b4"/>
     <use xlink:href="#m295242524f" x="217.983828" y="114.956464" style="fill: #1f77b4; stroke: #1f77b4"/>
    </g>
   </g>
   <g id="line2d_16">
    <path d="M 57.538971 202.66689 
L 75.366177 182.104872 
L 93.193384 168.682443 
L 111.02059 159.625364 
L 128.847796 154.362466 
L 146.675003 149.058771 
L 164.502209 145.346184 
L 182.329415 141.511205 
L 200.156622 137.757821 
L 217.983828 134.901985 
" clip-path="url(#p4b81324805)" style="fill: none; stroke-dasharray: 5.55,2.4; stroke-dashoffset: 0; stroke: #ff7f0e; stroke-width: 1.5"/>
    <defs>
     <path id="ma20d66534e" d="M -3 3 
L 3 3 
L 3 -3 
L -3 -3 
z
" style="stroke: #ff7f0e; stroke-linejoin: miter"/>
    </defs>
    <g clip-path="url(#p4b81324805)">
     <use xlink:href="#ma20d66534e" x="57.538971" y="202.66689" style="fill: #ff7f0e; stroke: #ff7f0e; stroke-linejoin: miter"/>
     <use xlink:href="#ma20d66534e" x="75.366177" y="182.104872" style="fill: #ff7f0e; stroke: #ff7f0e; stroke-linejoin: miter"/>
     <use xlink:href="#ma20d66534e" x="93.193384" y="168.682443" style="fill: #ff7f0e; stroke: #ff7f0e; stroke-linejoin: miter"/>
     <use xlink:href="#ma20d66534e" x="111.02059" y="159.625364" style="fill: #ff7f0e; stroke: #ff7f0e; stroke-linejoin: miter"/>
     <use xlink:href="#ma20d66534e" x="128.847796" y="154.362466" style="fill: #ff7f0e; stroke: #ff7f0e; stroke-linejoin: miter"/>
     <use xlink:href="#ma20d66534e" x="146.675003" y="149.058771" style="fill: #ff7f0e; stroke: #ff7f0e; stroke-linejoin: miter"/>
     <use xlink:href="#ma20d66534e" x="164.502209" y="145.346184" style="fill: #ff7f0e; stroke: #ff7f0e; stroke-linejoin: miter"/>
     <use xlink:href="#ma20d66534e" x="182.329415" y="141.511205" style="fill: #ff7f0e; stroke: #ff7f0e; stroke-linejoin: miter"/>
     <use xlink:href="#ma20d66534e" x="200.156622" y="137.757821" style="fill: #ff7f0e; stroke: #ff7f0e; stroke-linejoin: miter"/>
     <use xlink:href="#ma20d66534e" x="217.983828" y="134.901985" style="fill: #ff7f0e; stroke: #ff7f0e; stroke-linejoin: miter"/>
    </g>
   </g>
   <g id="line2d_17">
    <path d="M 57.538971 146.623241 
L 75.366177 140.63978 
L 93.193384 136.173506 
L 111.02059 138.64201 
L 128.847796 134.617988 
L 146.675003 130.824674 
L 164.502209 134.461978 
L 182.329415 135.609933 
L 200.156622 136.401254 
L 217.983828 137.723801 
L 235.811034 140.03303 
L 253.638241 141.196189 
L 271.465447 141.448422 
L 289.292653 142.521903 
L 307.11986 142.765533 
L 324.947066 143.027518 
L 342.774272 143.061516 
L 360.601479 143.061516 
L 378.428685 143.061516 
L 396.255891 143.061516 
" clip-path="url(#p4b81324805)" style="fill: none; stroke: #2ca02c; stroke-width: 1.5; stroke-linecap: square"/>
    <defs>
     <path id="mb15ba76f66" d="M 0 3 
C 0.795609 3 1.55874 2.683901 2.12132 2.12132 
C 2.683901 1.55874 3 0.795609 3 0 
C 3 -0.795609 2.683901 -1.55874 2.12132 -2.12132 
C 1.55874 -2.683901 0.795609 -3 0 -3 
C -0.795609 -3 -1.55874 -2.683901 -2.12132 -2.12132 
C -2.683901 -1.55874 -3 -0.795609 -3 0 
C -3 0.795609 -2.683901 1.55874 -2.12132 2.12132 
C -1.55874 2.683901 -0.795609 3 0 3 
z
" style="stroke: #2ca02c"/>
    </defs>
    <g clip-path="url(#p4b81324805)">
     <use xlink:href="#mb15ba76f66" x="57.538971" y="146.623241" style="fill: #2ca02c; stroke: #2ca02c"/>
     <use xlink:href="#mb15ba76f66" x="75.366177" y="140.63978" style="fill: #2ca02c; stroke: #2ca02c"/>
     <use xlink:href="#mb15ba76f66" x="93.193384" y="136.173506" style="fill: #2ca02c; stroke: #2ca02c"/>
     <use xlink:href="#mb15ba76f66" x="111.02059" y="138.64201" style="fill: #2ca02c; stroke: #2ca02c"/>
     <use xlink:href="#mb15ba76f66" x="128.847796" y="134.617988" style="fill: #2ca02c; stroke: #2ca02c"/>
     <use xlink:href="#mb15ba76f66" x="146.675003" y="130.824674" style="fill: #2ca02c; stroke: #2ca02c"/>
     <use xlink:href="#mb15ba76f66" x="164.502209" y="134.461978" style="fill: #2ca02c; stroke: #2ca02c"/>
     <use xlink:href="#mb15ba76f66" x="182.329415" y="135.609933" style="fill: #2ca02c; stroke: #2ca02c"/>
     <use xlink:href="#mb15ba76f66" x="200.156622" y="136.401254" style="fill: #2ca02c; stroke: #2ca02c"/>
     <use xlink:href="#mb15ba76f66" x="217.983828" y="137.723801" style="fill: #2ca02c; stroke: #2ca02c"/>
     <use xlink:href="#mb15ba76f66" x="235.811034" y="140.03303" style="fill: #2ca02c; stroke: #2ca02c"/>
     <use xlink:href="#mb15ba76f66" x="253.638241" y="141.196189" style="fill: #2ca02c; stroke: #2ca02c"/>
     <use xlink:href="#mb15ba76f66" x="271.465447" y="141.448422" style="fill: #2ca02c; stroke: #2ca02c"/>
     <use xlink:href="#mb15ba76f66" x="289.292653" y="142.521903" style="fill: #2ca02c; stroke: #2ca02c"/>
     <use xlink:href="#mb15ba76f66" x="307.11986" y="142.765533" style="fill: #2ca02c; stroke: #2ca02c"/>
     <use xlink:href="#mb15ba76f66" x="324.947066" y="143.027518" style="fill: #2ca02c; stroke: #2ca02c"/>
     <use xlink:href="#mb15ba76f66" x="342.774272" y="143.061516" style="fill: #2ca02c; stroke: #2ca02c"/>
     <use xlink:href="#mb15ba76f66" x="360.601479" y="143.061516" style="fill: #2ca02c; stroke: #2ca02c"/>
     <use xlink:href="#mb15ba76f66" x="378.428685" y="143.061516" style="fill: #2ca02c; stroke: #2ca02c"/>
     <use xlink:href="#mb15ba76f66" x="396.255891" y="143.061516" style="fill: #2ca02c; stroke: #2ca02c"/>
    </g>
   </g>
   <g id="line2d_18">
    <path d="M 57.538971 199.52547 
L 75.366177 181.900883 
L 93.193384 169.457599 
L 111.02059 162.929974 
L 128.847796 155.831182 
L 146.675003 151.180249 
L 164.502209 148.569199 
L 182.329415 146.896495 
L 200.156622 145.509375 
L 217.983828 144.775017 
L 235.811034 144.040659 
L 253.638241 143.836671 
L 271.465447 143.306302 
L 289.292653 143.224706 
L 307.11986 143.143111 
L 324.947066 143.143111 
L 342.774272 143.061516 
L 360.601479 143.061516 
L 378.428685 143.061516 
L 396.255891 143.061516 
" clip-path="url(#p4b81324805)" style="fill: none; stroke-dasharray: 5.55,2.4; stroke-dashoffset: 0; stroke: #d62728; stroke-width: 1.5"/>
    <defs>
     <path id="m8db703ebb1" d="M -3 3 
L 3 3 
L 3 -3 
L -3 -3 
z
" style="stroke: #d62728; stroke-linejoin: miter"/>
    </defs>
    <g clip-path="url(#p4b81324805)">
     <use xlink:href="#m8db703ebb1" x="57.538971" y="199.52547" style="fill: #d62728; stroke: #d62728; stroke-linejoin: miter"/>
     <use xlink:href="#m8db703ebb1" x="75.366177" y="181.900883" style="fill: #d62728; stroke: #d62728; stroke-linejoin: miter"/>
     <use xlink:href="#m8db703ebb1" x="93.193384" y="169.457599" style="fill: #d62728; stroke: #d62728; stroke-linejoin: miter"/>
     <use xlink:href="#m8db703ebb1" x="111.02059" y="162.929974" style="fill: #d62728; stroke: #d62728; stroke-linejoin: miter"/>
     <use xlink:href="#m8db703ebb1" x="128.847796" y="155.831182" style="fill: #d62728; stroke: #d62728; stroke-linejoin: miter"/>
     <use xlink:href="#m8db703ebb1" x="146.675003" y="151.180249" style="fill: #d62728; stroke: #d62728; stroke-linejoin: miter"/>
     <use xlink:href="#m8db703ebb1" x="164.502209" y="148.569199" style="fill: #d62728; stroke: #d62728; stroke-linejoin: miter"/>
     <use xlink:href="#m8db703ebb1" x="182.329415" y="146.896495" style="fill: #d62728; stroke: #d62728; stroke-linejoin: miter"/>
     <use xlink:href="#m8db703ebb1" x="200.156622" y="145.509375" style="fill: #d62728; stroke: #d62728; stroke-linejoin: miter"/>
     <use xlink:href="#m8db703ebb1" x="217.983828" y="144.775017" style="fill: #d62728; stroke: #d62728; stroke-linejoin: miter"/>
     <use xlink:href="#m8db703ebb1" x="235.811034" y="144.040659" style="fill: #d62728; stroke: #d62728; stroke-linejoin: miter"/>
     <use xlink:href="#m8db703ebb1" x="253.638241" y="143.836671" style="fill: #d62728; stroke: #d62728; stroke-linejoin: miter"/>
     <use xlink:href="#m8db703ebb1" x="271.465447" y="143.306302" style="fill: #d62728; stroke: #d62728; stroke-linejoin: miter"/>
     <use xlink:href="#m8db703ebb1" x="289.292653" y="143.224706" style="fill: #d62728; stroke: #d62728; stroke-linejoin: miter"/>
     <use xlink:href="#m8db703ebb1" x="307.11986" y="143.143111" style="fill: #d62728; stroke: #d62728; stroke-linejoin: miter"/>
     <use xlink:href="#m8db703ebb1" x="324.947066" y="143.143111" style="fill: #d62728; stroke: #d62728; stroke-linejoin: miter"/>
     <use xlink:href="#m8db703ebb1" x="342.774272" y="143.061516" style="fill: #d62728; stroke: #d62728; stroke-linejoin: miter"/>
     <use xlink:href="#m8db703ebb1" x="360.601479" y="143.061516" style="fill: #d62728; stroke: #d62728; stroke-linejoin: miter"/>
     <use xlink:href="#m8db703ebb1" x="378.428685" y="143.061516" style="fill: #d62728; stroke: #d62728; stroke-linejoin: miter"/>
     <use xlink:href="#m8db703ebb1" x="396.255891" y="143.061516" style="fill: #d62728; stroke: #d62728; stroke-linejoin: miter"/>
    </g>
   </g>
   <g id="patch_3">
    <path d="M 40.603125 242.918125 
L 40.603125 22.318125 
" style="fill: none; stroke: #000000; stroke-width: 0.8; stroke-linejoin: miter; stroke-linecap: square"/>
   </g>
   <g id="patch_4">
    <path d="M 413.191737 242.918125 
L 413.191737 22.318125 
" style="fill: none; stroke: #000000; stroke-width: 0.8; stroke-linejoin: miter; stroke-linecap: square"/>
   </g>
   <g id="patch_5">
    <path d="M 40.603125 242.918125 
L 413.191737 242.918125 
" style="fill: none; stroke: #000000; stroke-width: 0.8; stroke-linejoin: miter; stroke-linecap: square"/>
   </g>
   <g id="patch_6">
    <path d="M 40.603125 22.318125 
L 413.191737 22.318125 
" style="fill: none; stroke: #000000; stroke-width: 0.8; stroke-linejoin: miter; stroke-linecap: square"/>
   </g>
   <g id="text_17">
    <!-- Male vs female -->
    <g transform="translate(181.510244 16.318125) scale(0.12 -0.12)">
     <defs>
      <path id="DejaVuSans-4d" d="M 628 4666 
L 1569 4666 
L 2759 1491 
L 3956 4666 
L 4897 4666 
L 4897 0 
L 4281 0 
L 4281 4097 
L 3078 897 
L 2444 897 
L 1241 4097 
L 1241 0 
L 628 0 
L 628 4666 
z
" transform="scale(0.015625)"/>
      <path id="DejaVuSans-76" d="M 191 3500 
L 800 3500 
L 1894 563 
L 2988 3500 
L 3597 3500 
L 2284 0 
L 1503 0 
L 191 3500 
z
" transform="scale(0.015625)"/>
     </defs>
     <use xlink:href="#DejaVuSans-4d"/>
     <use xlink:href="#DejaVuSans-61" transform="translate(86.279297 0)"/>
     <use xlink:href="#DejaVuSans-6c" transform="translate(147.558594 0)"/>
     <use xlink:href="#DejaVuSans-65" transform="translate(175.341797 0)"/>
     <use xlink:href="#DejaVuSans-20" transform="translate(236.865234 0)"/>
     <use xlink:href="#DejaVuSans-76" transform="translate(268.652344 0)"/>
     <use xlink:href="#DejaVuSans-73" transform="translate(327.832031 0)"/>
     <use xlink:href="#DejaVuSans-20" transform="translate(379.931641 0)"/>
     <use xlink:href="#DejaVuSans-66" transform="translate(411.71875 0)"/>
     <use xlink:href="#DejaVuSans-65" transform="translate(446.923828 0)"/>
     <use xlink:href="#DejaVuSans-6d" transform="translate(508.447266 0)"/>
     <use xlink:href="#DejaVuSans-61" transform="translate(605.859375 0)"/>
     <use xlink:href="#DejaVuSans-6c" transform="translate(667.138672 0)"/>
     <use xlink:href="#DejaVuSans-65" transform="translate(694.921875 0)"/>
    </g>
   </g>
   <g id="legend_1">
    <g id="line2d_19">
     <path d="M 248.282362 35.416563 
L 258.282362 35.416563 
L 268.282362 35.416563 
" style="fill: none; stroke: #1f77b4; stroke-width: 1.5; stroke-linecap: square"/>
     <g>
      <use xlink:href="#m295242524f" x="258.282362" y="35.416563" style="fill: #1f77b4; stroke: #1f77b4"/>
     </g>
    </g>
    <g id="text_18">
     <!-- female: S_Chao2_bc -->
     <g transform="translate(276.282362 38.916563) scale(0.1 -0.1)">
      <defs>
       <path id="DejaVuSans-3a" d="M 750 794 
L 1409 794 
L 1409 0 
L 750 0 
L 750 794 
z
M 750 3309 
L 1409 3309 
L 1409 2516 
L 750 2516 
L 750 3309 
z
" transform="scale(0.015625)"/>
       <path id="DejaVuSans-53" d="M 3425 4513 
L 3425 3897 
Q 3066 4069 2747 4153 
Q 2428 4238 2131 4238 
Q 1616 4238 1336 4038 
Q 1056 3838 1056 3469 
Q 1056 3159 1242 3001 
Q 1428 2844 1947 2747 
L 2328 2669 
Q 3034 2534 3370 2195 
Q 3706 1856 3706 1288 
Q 3706 609 3251 259 
Q 2797 -91 1919 -91 
Q 1588 -91 1214 -16 
Q 841 59 441 206 
L 441 856 
Q 825 641 1194 531 
Q 1563 422 1919 422 
Q 2459 422 2753 634 
Q 3047 847 3047 1241 
Q 3047 1584 2836 1778 
Q 2625 1972 2144 2069 
L 1759 2144 
Q 1053 2284 737 2584 
Q 422 2884 422 3419 
Q 422 4038 858 4394 
Q 1294 4750 2059 4750 
Q 2388 4750 2728 4690 
Q 3069 4631 3425 4513 
z
" transform="scale(0.015625)"/>
       <path id="DejaVuSans-5f" d="M 3263 -1063 
L 3263 -1509 
L -63 -1509 
L -63 -1063 
L 3263 -1063 
z
" transform="scale(0.015625)"/>
       <path id="DejaVuSans-43" d="M 4122 4306 
L 4122 3641 
Q 3803 3938 3442 4084 
Q 3081 4231 2675 4231 
Q 1875 4231 1450 3742 
Q 1025 3253 1025 2328 
Q 1025 1406 1450 917 
Q 1875 428 2675 428 
Q 3081 428 3442 575 
Q 3803 722 4122 1019 
L 4122 359 
Q 3791 134 3420 21 
Q 3050 -91 2638 -91 
Q 1578 -91 968 557 
Q 359 1206 359 2328 
Q 359 3453 968 4101 
Q 1578 4750 2638 4750 
Q 3056 4750 3426 4639 
Q 3797 4528 4122 4306 
z
" transform="scale(0.015625)"/>
       <path id="DejaVuSans-68" d="M 3513 2113 
L 3513 0 
L 2938 0 
L 2938 2094 
Q 2938 2591 2744 2837 
Q 2550 3084 2163 3084 
Q 1697 3084 1428 2787 
Q 1159 2491 1159 1978 
L 1159 0 
L 581 0 
L 581 4863 
L 1159 4863 
L 1159 2956 
Q 1366 3272 1645 3428 
Q 1925 3584 2291 3584 
Q 2894 3584 3203 3211 
Q 3513 2838 3513 2113 
z
" transform="scale(0.015625)"/>
      </defs>
      <use xlink:href="#DejaVuSans-66"/>
      <use xlink:href="#DejaVuSans-65" transform="translate(35.205078 0)"/>
      <use xlink:href="#DejaVuSans-6d" transform="translate(96.728516 0)"/>
      <use xlink:href="#DejaVuSans-61" transform="translate(194.140625 0)"/>
      <use xlink:href="#DejaVuSans-6c" transform="translate(255.419922 0)"/>
      <use xlink:href="#DejaVuSans-65" transform="translate(283.203125 0)"/>
      <use xlink:href="#DejaVuSans-3a" transform="translate(344.726562 0)"/>
      <use xlink:href="#DejaVuSans-20" transform="translate(378.417969 0)"/>
      <use xlink:href="#DejaVuSans-53" transform="translate(410.205078 0)"/>
      <use xlink:href="#DejaVuSans-5f" transform="translate(473.681641 0)"/>
      <use xlink:href="#DejaVuSans-43" transform="translate(523.681641 0)"/>
      <use xlink:href="#DejaVuSans-68" transform="translate(593.505859 0)"/>
      <use xlink:href="#DejaVuSans-61" transform="translate(656.884766 0)"/>
      <use xlink:href="#DejaVuSans-6f" transform="translate(718.164062 0)"/>
      <use xlink:href="#DejaVuSans-32" transform="translate(779.345703 0)"/>
      <use xlink:href="#DejaVuSans-5f" transform="translate(842.96875 0)"/>
      <use xlink:href="#DejaVuSans-62" transform="translate(892.96875 0)"/>
      <use xlink:href="#DejaVuSans-63" transform="translate(956.445312 0)"/>
     </g>
    </g>
    <g id="line2d_20">
     <path d="M 248.282362 50.372813 
L 258.282362 50.372813 
L 268.282362 50.372813 
" style="fill: none; stroke-dasharray: 5.55,2.4; stroke-dashoffset: 0; stroke: #ff7f0e; stroke-width: 1.5"/>
     <g>
      <use xlink:href="#ma20d66534e" x="258.282362" y="50.372813" style="fill: #ff7f0e; stroke: #ff7f0e; stroke-linejoin: miter"/>
     </g>
    </g>
    <g id="text_19">
     <!-- female: observed species -->
     <g transform="translate(276.282362 53.872813) scale(0.1 -0.1)">
      <defs>
       <path id="DejaVuSans-64" d="M 2906 2969 
L 2906 4863 
L 3481 4863 
L 3481 0 
L 2906 0 
L 2906 525 
Q 2725 213 2448 61 
Q 2172 -91 1784 -91 
Q 1150 -91 751 415 
Q 353 922 353 1747 
Q 353 2572 751 3078 
Q 1150 3584 1784 3584 
Q 2172 3584 2448 3432 
Q 2725 3281 2906 2969 
z
M 947 1747 
Q 947 1113 1208 752 
Q 1469 391 1925 391 
Q 2381 391 2643 752 
Q 2906 1113 2906 1747 
Q 2906 2381 2643 2742 
Q 2381 3103 1925 3103 
Q 1469 3103 1208 2742 
Q 947 2381 947 1747 
z
" transform="scale(0.015625)"/>
      </defs>
      <use xlink:href="#DejaVuSans-66"/>
      <use xlink:href="#DejaVuSans-65" transform="translate(35.205078 0)"/>
      <use xlink:href="#DejaVuSans-6d" transform="translate(96.728516 0)"/>
      <use xlink:href="#DejaVuSans-61" transform="translate(194.140625 0)"/>
      <use xlink:href="#DejaVuSans-6c" transform="translate(255.419922 0)"/>
      <use xlink:href="#DejaVuSans-65" transform="translate(283.203125 0)"/>
      <use xlink:href="#DejaVuSans-3a" transform="translate(344.726562 0)"/>
      <use xlink:href="#DejaVuSans-20" transform="translate(378.417969 0)"/>
      <use xlink:href="#DejaVuSans-6f" transform="translate(410.205078 0)"/>
      <use xlink:href="#DejaVuSans-62" transform="translate(471.386719 0)"/>
      <use xlink:href="#DejaVuSans-73" transform="translate(534.863281 0)"/>
      <use xlink:href="#DejaVuSans-65" transform="translate(586.962891 0)"/>
      <use xlink:href="#DejaVuSans-72" transform="translate(648.486328 0)"/>
      <use xlink:href="#DejaVuSans-76" transform="translate(689.599609 0)"/>
      <use xlink:href="#DejaVuSans-65" transform="translate(748.779297 0)"/>
      <use xlink:href="#DejaVuSans-64" transform="translate(810.302734 0)"/>
      <use xlink:href="#DejaVuSans-20" transform="translate(873.779297 0)"/>
      <use xlink:href="#DejaVuSans-73" transform="translate(905.566406 0)"/>
      <use xlink:href="#DejaVuSans-70" transform="translate(957.666016 0)"/>
      <use xlink:href="#DejaVuSans-65" transform="translate(1021.142578 0)"/>
      <use xlink:href="#DejaVuSans-63" transform="translate(1082.666016 0)"/>
      <use xlink:href="#DejaVuSans-69" transform="translate(1137.646484 0)"/>
      <use xlink:href="#DejaVuSans-65" transform="translate(1165.429688 0)"/>
      <use xlink:href="#DejaVuSans-73" transform="translate(1226.953125 0)"/>
     </g>
    </g>
    <g id="line2d_21">
     <path d="M 248.282362 65.050938 
L 258.282362 65.050938 
L 268.282362 65.050938 
" style="fill: none; stroke: #2ca02c; stroke-width: 1.5; stroke-linecap: square"/>
     <g>
      <use xlink:href="#mb15ba76f66" x="258.282362" y="65.050938" style="fill: #2ca02c; stroke: #2ca02c"/>
     </g>
    </g>
    <g id="text_20">
     <!-- male: S_Chao2_bc -->
     <g transform="translate(276.282362 68.550938) scale(0.1 -0.1)">
      <use xlink:href="#DejaVuSans-6d"/>
      <use xlink:href="#DejaVuSans-61" transform="translate(97.412109 0)"/>
      <use xlink:href="#DejaVuSans-6c" transform="translate(158.691406 0)"/>
      <use xlink:href="#DejaVuSans-65" transform="translate(186.474609 0)"/>
      <use xlink:href="#DejaVuSans-3a" transform="translate(247.998047 0)"/>
      <use xlink:href="#DejaVuSans-20" transform="translate(281.689453 0)"/>
      <use xlink:href="#DejaVuSans-53" transform="translate(313.476562 0)"/>
      <use xlink:href="#DejaVuSans-5f" transform="translate(376.953125 0)"/>
      <use xlink:href="#DejaVuSans-43" transform="translate(426.953125 0)"/>
      <use xlink:href="#DejaVuSans-68" transform="translate(496.777344 0)"/>
      <use xlink:href="#DejaVuSans-61" transform="translate(560.15625 0)"/>
      <use xlink:href="#DejaVuSans-6f" transform="translate(621.435547 0)"/>
      <use xlink:href="#DejaVuSans-32" transform="translate(682.617188 0)"/>
      <use xlink:href="#DejaVuSans-5f" transform="translate(746.240234 0)"/>
      <use xlink:href="#DejaVuSans-62" transform="translate(796.240234 0)"/>
      <use xlink:href="#DejaVuSans-63" transform="translate(859.716797 0)"/>
     </g>
    </g>
    <g id="line2d_22">
     <path d="M 248.282362 80.007188 
L 258.282362 80.007188 
L 268.282362 80.007188 
" style="fill: none; stroke-dasharray: 5.55,2.4; stroke-dashoffset: 0; stroke: #d62728; stroke-width: 1.5"/>
     <g>
      <use xlink:href="#m8db703ebb1" x="258.282362" y="80.007188" style="fill: #d62728; stroke: #d62728; stroke-linejoin: miter"/>
     </g>
    </g>
    <g id="text_21">
     <!-- male: observed species -->
     <g transform="translate(276.282362 83.507188) scale(0.1 -0.1)">
      <use xlink:href="#DejaVuSans-6d"/>
      <use xlink:href="#DejaVuSans-61" transform="translate(97.412109 0)"/>
      <use xlink:href="#DejaVuSans-6c" transform="translate(158.691406 0)"/>
      <use xlink:href="#DejaVuSans-65" transform="translate(186.474609 0)"/>
      <use xlink:href="#DejaVuSans-3a" transform="translate(247.998047 0)"/>
      <use xlink:href="#DejaVuSans-20" transform="translate(281.689453 0)"/>
      <use xlink:href="#DejaVuSans-6f" transform="translate(313.476562 0)"/>
      <use xlink:href="#DejaVuSans-62" transform="translate(374.658203 0)"/>
      <use xlink:href="#DejaVuSans-73" transform="translate(438.134766 0)"/>
      <use xlink:href="#DejaVuSans-65" transform="translate(490.234375 0)"/>
      <use xlink:href="#DejaVuSans-72" transform="translate(551.757812 0)"/>
      <use xlink:href="#DejaVuSans-76" transform="translate(592.871094 0)"/>
      <use xlink:href="#DejaVuSans-65" transform="translate(652.050781 0)"/>
      <use xlink:href="#DejaVuSans-64" transform="translate(713.574219 0)"/>
      <use xlink:href="#DejaVuSans-20" transform="translate(777.050781 0)"/>
      <use xlink:href="#DejaVuSans-73" transform="translate(808.837891 0)"/>
      <use xlink:href="#DejaVuSans-70" transform="translate(860.9375 0)"/>
      <use xlink:href="#DejaVuSans-65" transform="translate(924.414062 0)"/>
      <use xlink:href="#DejaVuSans-63" transform="translate(985.9375 0)"/>
      <use xlink:href="#DejaVuSans-69" transform="translate(1040.917969 0)"/>
      <use xlink:href="#DejaVuSans-65" transform="translate(1068.701172 0)"/>
      <use xlink:href="#DejaVuSans-73" transform="translate(1130.224609 0)"/>
     </g>
    </g>
   </g>
  </g>
 </g>
 <defs>
  <clipPath id="p4b81324805">
   <rect x="40.603125" y="22.318125" width="372.588612" height="220.6"/>
  </clipPath>
 </defs>
</svg>
